<?xml version="1.0" encoding="UTF-8" standalone="no"?>
<!-- Created with Inkscape (http://www.inkscape.org/) -->

<svg
   xmlns:dc="http://purl.org/dc/elements/1.1/"
   xmlns:cc="http://creativecommons.org/ns#"
   xmlns:rdf="http://www.w3.org/1999/02/22-rdf-syntax-ns#"
   xmlns:svg="http://www.w3.org/2000/svg"
   xmlns="http://www.w3.org/2000/svg"
   xmlns:sodipodi="http://sodipodi.sourceforge.net/DTD/sodipodi-0.dtd"
   xmlns:inkscape="http://www.inkscape.org/namespaces/inkscape"
   width="210mm"
   height="55mm"
   viewBox="0 0 210 55"
   version="1.1"
   id="svg8"
   inkscape:version="0.92.2 5c3e80d, 2017-08-06"
   sodipodi:docname="ashford-volunteer-centre-logo.svg">
  <defs
     id="defs2">
    <pattern
       id="pattern3947"
       patternTransform="matrix(0.26458333,0,0,0.26458333,40.945265,28.291729)"
       height="58.409918"
       width="11.506282"
       patternUnits="userSpaceOnUse">
      <text
         xml:space="preserve"
         style="font-style:normal;font-weight:normal;font-size:80.11477661px;line-height:125%;font-family:sans-serif;letter-spacing:0px;word-spacing:0px;fill:#000000;fill-opacity:1;stroke:none;stroke-width:2.00286937px;stroke-linecap:butt;stroke-linejoin:miter;stroke-opacity:1"
         x="-4.7222123"
         y="58.132065"
         id="text3823-9"
         transform="scale(0.99524304,1.0047797)"><tspan
           sodipodi:role="line"
           id="tspan3821-0"
           x="-4.7222123"
           y="58.132065"
           style="font-style:normal;font-variant:normal;font-weight:bold;font-stretch:normal;font-family:'.Helvetica Neue DeskInterface';-inkscape-font-specification:'.Helvetica Neue DeskInterface Bold';stroke-width:2.00286937px">l</tspan></text>
    </pattern>
    <pattern
       id="pattern3947-3"
       patternTransform="matrix(0.26458333,0,0,0.26458333,40.945265,28.291729)"
       height="58.409918"
       width="11.506282"
       patternUnits="userSpaceOnUse">
      <text
         xml:space="preserve"
         style="font-style:normal;font-weight:normal;font-size:80.11477661px;line-height:125%;font-family:sans-serif;letter-spacing:0px;word-spacing:0px;fill:#000000;fill-opacity:1;stroke:none;stroke-width:2.00286937px;stroke-linecap:butt;stroke-linejoin:miter;stroke-opacity:1"
         x="-4.7222123"
         y="58.132065"
         id="text3823-9-8"
         transform="scale(0.99524304,1.0047797)"><tspan
           sodipodi:role="line"
           id="tspan3821-0-0"
           x="-4.7222123"
           y="58.132065"
           style="font-style:normal;font-variant:normal;font-weight:bold;font-stretch:normal;font-family:'.Helvetica Neue DeskInterface';-inkscape-font-specification:'.Helvetica Neue DeskInterface Bold';stroke-width:2.00286937px">l</tspan></text>
    </pattern>
  </defs>
  <sodipodi:namedview
     id="base"
     pagecolor="#ffffff"
     bordercolor="#666666"
     borderopacity="1.0"
     inkscape:pageopacity="0.0"
     inkscape:pageshadow="2"
     inkscape:zoom="0.98994949"
     inkscape:cx="396.85039"
     inkscape:cy="38.338987"
     inkscape:document-units="mm"
     inkscape:current-layer="layer1"
     showgrid="false"
     inkscape:window-width="1280"
     inkscape:window-height="720"
     inkscape:window-x="1931"
     inkscape:window-y="672"
     inkscape:window-maximized="0"
     showguides="true"
     inkscape:guide-bbox="true" />
  <metadata
     id="metadata5">
    <rdf:RDF>
      <cc:Work
         rdf:about="">
        <dc:format>image/svg+xml</dc:format>
        <dc:type
           rdf:resource="http://purl.org/dc/dcmitype/StillImage" />
        <dc:title></dc:title>
      </cc:Work>
    </rdf:RDF>
  </metadata>
  <g
     inkscape:label="Layer 1"
     inkscape:groupmode="layer"
     id="layer1">
    <path
       style="fill:#fea815;fill-opacity:1;fill-rule:evenodd;stroke:#fea815;stroke-width:0.31777704px;stroke-linecap:butt;stroke-linejoin:miter;stroke-opacity:1"
       d="m 7.1399853,274.24876 196.2223047,-1e-5 -0.1085,6.27042 c 0,0 -0.0712,9.64818 -11.68966,9.87378 -11.68966,0.22699 -173.869438,-0.11348 -173.869438,-0.11348 0,0 -9.4866807,0.6265 -10.5547396,-11.1222 1.1e-5,-4.90852 0.021894,-2.09039 1.1e-5,-4.90851 z"
       id="path91"
       inkscape:connector-curvature="0"
       sodipodi:nodetypes="cccsccc"
       inkscape:export-xdpi="90"
       inkscape:export-ydpi="90" />
    <path
       style="opacity:1;fill:#33326a;fill-opacity:1;stroke:none;stroke-width:1.20104706"
       d="m 39.577139,250.48324 3.82667,-1.70239 v 18.56135 l -3.826671,0.006 z"
       id="rect3951"
       inkscape:connector-curvature="0"
       sodipodi:nodetypes="ccccc"
       inkscape:export-xdpi="90"
       inkscape:export-ydpi="90" />
    <g
       aria-label="t"
       transform="matrix(1.1947776,0,0,1.2073496,-9.5433164,214.80116)"
       style="font-style:normal;font-weight:normal;font-size:21.20690155px;line-height:125%;font-family:sans-serif;letter-spacing:0px;word-spacing:0px;opacity:1;fill:#33326a;fill-opacity:1;stroke:none;stroke-width:0.53017253px;stroke-linecap:butt;stroke-linejoin:miter;stroke-opacity:1"
       id="text3823-2"
       inkscape:export-xdpi="90"
       inkscape:export-ydpi="90">
      <path
         d="m 76.900738,32.466655 2e-6,-3.112091 -3.060347,1.27952 v 1.832571 h -2.27289 v 2.575655 h 2.27289 l 2e-6,6.273464 c 0,0.560345 0.09339,1.012931 0.280172,1.357759 0.186782,0.344827 0.438219,0.610632 0.754311,0.797414 0.330459,0.186781 0.704023,0.308908 1.12069,0.366379 0.440533,0.04372 0.788959,0.06328 1.27566,-0.01729 0.297591,-0.04926 0.666022,-0.14408 0.965402,-0.245464 0.363134,-0.122974 0.713399,-0.327558 0.922282,-0.501639 l 0.485545,-2.769501 c -0.143784,0.0282 -0.552778,0.348214 -0.931176,0.616885 -0.118399,0.111662 -0.564193,0.366141 -0.744688,0.406768 -0.344928,0.07764 -0.636193,0.140026 -0.809232,-0.03286 -0.172489,-0.17234 -0.258621,-0.517242 -0.258621,-1.034483 l -2e-6,-5.217431 h 2.743719 v -2.575655 z"
         style="font-style:normal;font-variant:normal;font-weight:bold;font-stretch:normal;font-family:'.Helvetica Neue DeskInterface';-inkscape-font-specification:'.Helvetica Neue DeskInterface Bold';fill:#33326a;fill-opacity:1;stroke-width:0.53017253px"
         id="path3964"
         inkscape:connector-curvature="0"
         sodipodi:nodetypes="cccccccscccsscccssscccc" />
    </g>
    <g
       aria-label="e"
       transform="matrix(1.1917095,0,0,1.210458,-9.3828076,214.76104)"
       style="font-style:normal;font-weight:normal;font-size:20.5550499px;line-height:125%;font-family:sans-serif;letter-spacing:0px;word-spacing:0px;opacity:1;fill:#33326a;fill-opacity:1;stroke:none;stroke-width:0.51387626px;stroke-linecap:butt;stroke-linejoin:miter;stroke-opacity:1"
       id="text3823-1"
       inkscape:export-xdpi="90"
       inkscape:export-ydpi="90">
      <path
         d="m 88.811232,36.724454 h -4.825423 c 0.01393,-0.208893 0.05571,-0.445638 0.125335,-0.710235 0.08356,-0.264598 0.215856,-0.515269 0.396897,-0.752014 0.194967,-0.236745 0.445638,-0.431712 0.752014,-0.5849 0.320302,-0.167114 0.717198,-0.250671 1.190689,-0.250671 0.724161,0 1.260319,0.194966 1.608474,0.584899 0.362081,0.389933 0.612752,0.960907 0.752014,1.712921 z m -4.825423,1.880035 h 7.7917 c 0.05571,-0.835571 -0.01392,-1.636326 -0.208892,-2.402267 -0.194967,-0.76594 -0.515269,-1.448323 -0.960907,-2.047149 -0.431712,-0.598826 -0.988759,-1.072316 -1.671142,-1.420471 -0.682383,-0.362081 -1.483139,-0.543121 -2.402267,-0.543121 -0.821645,0 -1.573659,0.146225 -2.256042,0.438675 -0.668457,0.292449 -1.246394,0.696309 -1.733811,1.211578 -0.487416,0.501343 -0.863423,1.100169 -1.128021,1.796478 -0.264597,0.696309 -0.396896,1.448323 -0.396896,2.256042 0,0.835571 0.125336,1.601511 0.376007,2.29782 0.264597,0.696309 0.633641,1.295135 1.107132,1.796478 0.47349,0.501343 1.051427,0.891276 1.73381,1.1698 0.682383,0.264597 1.448386,0.407023 2.297821,0.396896 1.271704,-0.01516 2.557262,-0.447085 2.897697,-0.603529 0.839158,-0.385628 1.082181,-0.592654 1.55144,-1.021379 l -2.148439,-1.483832 c -0.161406,0.146354 -0.487102,0.331923 -1.026562,0.551859 -0.53946,0.219935 -1.360358,0.206426 -1.538549,0.183739 -0.17819,-0.02269 -0.974678,-0.172998 -1.420316,-0.60471 -0.445638,-0.431712 -0.821985,-1.012 -0.863763,-1.972907 z"
         style="font-style:normal;font-variant:normal;font-weight:bold;font-stretch:normal;font-family:'.Helvetica Neue DeskInterface';-inkscape-font-specification:'.Helvetica Neue DeskInterface Bold';fill:#33326a;fill-opacity:1;stroke-width:0.51387626px"
         id="path3979"
         inkscape:connector-curvature="0"
         sodipodi:nodetypes="cccccscccccccsccsscscsscczzsc" />
    </g>
    <path
       d="m 110.56733,259.18933 h -5.75051 c 0.0166,-0.25285 0.0663,-0.53941 0.14936,-0.85973 0.0996,-0.32027 0.25724,-0.62369 0.47299,-0.91026 0.23234,-0.28658 0.53108,-0.52257 0.89618,-0.70799 0.3817,-0.2023 0.8547,-0.30344 1.41896,-0.30344 0.863,0 1.50194,0.23599 1.91684,0.70799 0.43148,0.47201 0.73022,1.16314 0.89618,2.07343 z m -5.75051,2.27569 h 9.28545 c 0.0663,-1.01142 -0.0165,-1.98069 -0.24895,-2.90782 -0.23234,-0.92714 -0.61403,-1.75315 -1.14511,-2.47801 -0.51448,-0.72484 -1.17831,-1.29798 -1.99152,-1.71941 -0.81321,-0.43829 -1.76748,-0.65743 -2.86281,-0.65743 -0.97916,0 -1.87534,0.17699 -2.68854,0.53101 -0.79661,0.35399 -1.48534,0.84285 -2.0662,1.46657 -0.58085,0.60685 -1.02894,1.33169 -1.34427,2.17454 -0.31533,0.84287 -0.47299,1.75314 -0.47299,2.73086 0,1.01141 0.14937,1.93855 0.4481,2.78141 0.31532,0.84285 0.75511,1.5677 1.31938,2.17455 0.56426,0.60687 1.25299,1.07885 2.0662,1.416 0.8132,0.32029 1.72605,0.4927 2.73832,0.48042 1.51551,-0.0184 3.04752,-0.54118 3.45323,-0.73054 1.00002,-0.4668 1.28963,-0.71738 1.84885,-1.23633 l -2.5603,-1.79612 c -0.19236,0.17715 -0.5805,0.40178 -1.22337,0.668 -0.64289,0.26621 -1.62115,0.24986 -1.83351,0.22239 -0.21234,-0.0275 -1.16154,-0.2094 -1.6926,-0.73195 -0.53107,-0.52258 -0.97957,-1.22498 -1.02936,-2.38814 z"
       style="font-style:normal;font-variant:normal;font-weight:bold;font-stretch:normal;font-size:20.5550499px;line-height:125%;font-family:'.Helvetica Neue DeskInterface';-inkscape-font-specification:'.Helvetica Neue DeskInterface Bold';letter-spacing:0px;word-spacing:0px;opacity:1;fill:#33326a;fill-opacity:1;stroke:none;stroke-width:0.61718959px;stroke-linecap:butt;stroke-linejoin:miter;stroke-opacity:1"
       id="path3979-8"
       inkscape:connector-curvature="0"
       sodipodi:nodetypes="cccccscccccccsccsscscsscczzsc"
       inkscape:export-xdpi="90"
       inkscape:export-ydpi="90" />
    <path
       style="opacity:1;fill:#33326a;fill-opacity:1;fill-rule:evenodd;stroke:#000000;stroke-width:0.12010472;stroke-linecap:butt;stroke-linejoin:miter;stroke-miterlimit:4;stroke-dasharray:none;stroke-opacity:1"
       d="m 116.12145,253.95161 v 13.16986 h 3.59523 v -7.86498 c 0,0 0.006,-1.829 1.74145,-2.15903 1.73442,-0.33004 2.38042,0.39319 3.00539,0.84262 0.0436,0.0422 1.12352,-3.37054 1.12352,-3.37054 0,0 -0.75136,-0.89879 -2.73154,-1.03922 -0.9901,-0.0703 -2.25376,0.54931 -3.05322,1.43184 -0.79946,0.88252 -1.29876,1.92567 -1.53915,2.49342 -0.0539,0.12727 -0.0687,-0.68319 -0.0401,-1.1198 0.0412,-0.49033 0.13801,-0.68155 0.31384,-1.08423 0.17579,-0.40271 0.33206,-0.63772 0.75847,-1.29994 0.014,-0.0219 -3.17393,0 -3.17393,0 z"
       id="path4850"
       inkscape:connector-curvature="0"
       sodipodi:nodetypes="cccccccssscssc"
       inkscape:export-xdpi="90"
       inkscape:export-ydpi="90" />
    <path
       style="opacity:1;fill:#33326a;fill-opacity:1;fill-rule:evenodd;stroke:#000000;stroke-width:0.12010472;stroke-linecap:butt;stroke-linejoin:miter;stroke-miterlimit:4;stroke-dasharray:none;stroke-opacity:1"
       d="m 61.669047,254.11635 v 13.16985 h 3.595227 c -0.0012,-2.62704 -0.01095,-7.15718 -0.0038,-7.88111 0.160082,-1.38185 0.56436,-1.93187 1.483252,-2.26827 0.840671,-0.25057 1.47551,-0.27849 2.340219,9.9e-4 0.476381,0.18341 0.789979,0.28457 1.203504,0.74069 0.464409,0.51229 0.50469,0.98215 0.518742,1.53257 -0.01405,0.62953 -0.01405,7.81253 -0.01405,7.87513 0.05495,0 3.597514,0.004 3.597242,-0.001 -0.0024,-0.0471 -0.0024,-6.95859 -0.0027,-7.88701 -1.77e-4,-0.69852 -0.244223,-2.24999 -0.871289,-3.28446 -0.627067,-1.03447 -1.01536,-1.31433 -1.961005,-1.89476 -0.96093,-0.44869 -1.543363,-0.58299 -3.151447,-0.52342 -0.795917,0.0294 -2.253752,0.54931 -3.053217,1.43185 -0.799465,0.88251 -1.298765,1.92567 -1.539142,2.4934 -0.05393,0.12729 -0.06869,-0.68316 -0.04012,-1.11979 0.04108,-0.49034 0.138001,-0.68153 0.313847,-1.08424 0.175785,-0.40269 0.332052,-0.6377 0.75846,-1.29992 0.01405,-0.0219 -3.173923,0 -3.173923,0 z"
       id="path4850-4"
       inkscape:connector-curvature="0"
       sodipodi:nodetypes="ccccccsccssscssscsscc"
       inkscape:export-xdpi="90"
       inkscape:export-ydpi="90" />
    <path
       style="opacity:1;fill:#33326a;fill-opacity:1;fill-rule:evenodd;stroke:#000000;stroke-width:0.12010472;stroke-linecap:butt;stroke-linejoin:miter;stroke-miterlimit:4;stroke-dasharray:none;stroke-opacity:1"
       d="m 58.74095,267.16317 -0.0204,-13.16982 -3.595221,0.005 c 0.0053,2.62704 0.02203,7.15717 0.01592,7.8811 -0.157938,1.3821 -0.561363,1.93274 -1.479735,2.27057 -0.840282,0.25188 -1.475075,0.28078 -2.340216,0.002 -0.476666,-0.18268 -0.79042,-0.28334 -1.204652,-0.73884 -0.465203,-0.51153 -0.506212,-0.98134 -0.521117,-1.53174 0.01313,-0.62955 0.0018,-7.81257 0.0017,-7.87515 -0.05495,5e-5 -3.597517,0.001 -3.597236,0.006 0.0025,0.0472 0.0132,6.9586 0.01487,7.887 0.0012,0.69854 0.247713,2.24961 0.87638,3.28312 0.628671,1.03349 1.017395,1.31274 1.963941,1.89169 0.961624,0.44722 1.544265,0.58061 3.152253,0.51856 0.795873,-0.0307 2.252899,-0.55281 3.050996,-1.43658 0.798095,-0.88377 1.295776,-1.9277 1.535274,-2.4958 0.05371,-0.12736 0.06975,0.68308 0.04186,1.11972 -0.04031,0.49042 -0.136946,0.68177 -0.312167,1.08473 -0.175159,0.40299 -0.331064,0.63823 -0.756444,1.3011 -0.01403,0.0219 3.173921,-0.005 3.173921,-0.005 z"
       id="path4850-4-3"
       inkscape:connector-curvature="0"
       sodipodi:nodetypes="ccccccsccssscssscsscc"
       inkscape:export-xdpi="90"
       inkscape:export-ydpi="90" />
    <path
       style="fill:#fea815;fill-opacity:1;fill-rule:evenodd;stroke:none;stroke-width:0.31777704px;stroke-linecap:butt;stroke-linejoin:miter;stroke-opacity:1"
       d="m 148.1265,250.16981 c -0.26698,-0.29456 -0.49236,-0.61119 -1.05231,-0.88076 -0.55996,-0.26956 -1.24742,-0.28235 -2.11749,-0.2045 -0.87007,0.0778 -1.74571,0.33056 -2.9945,0.93478 -1.24877,0.60424 -2.86925,1.92282 -3.98845,2.92114 -1.1192,0.9983 -2.06039,1.99288 -2.75262,2.97729 -0.69223,0.98442 -1.24409,1.92337 -1.46054,2.80879 -0.21646,0.88544 -0.14888,1.53019 0,2.3032 0.14886,0.77301 0.3947,1.60139 0.8988,2.24702 0.50409,0.64564 1.30049,1.09402 2.02232,1.46057 0.72183,0.36654 1.44464,0.64021 2.24703,0.73028 0.8024,0.09 1.71133,-0.0883 2.47171,-0.2247 0.76039,-0.13625 1.49249,-0.28972 2.02456,-0.61571 0.53207,-0.32596 0.74561,-0.68638 1.12128,-1.12573 0.37566,-0.43935 0.78881,-1.11263 1.17968,-1.46058 0.39089,-0.34794 0.70335,-0.56877 1.06734,-0.6741 0.36399,-0.10531 0.73016,-0.16859 1.01116,0 0.28099,0.1686 0.36712,0.36882 0.44941,0.84264 0.0823,0.47381 -0.018,1.35582 -0.28089,1.90996 -0.26291,0.55415 -0.60859,0.78788 -1.17968,1.29203 -0.57109,0.50416 -1.48521,1.15865 -2.3032,1.6291 -0.81799,0.47046 -1.61893,0.91517 -2.58407,1.1797 -0.96516,0.26451 -2.13117,0.31211 -3.14583,0.33704 -1.01467,0.0248 -2.02582,1.4e-4 -2.92114,-0.16852 -0.8953,-0.16866 -1.62443,-0.37546 -2.41556,-0.78646 -0.79112,-0.41099 -1.65519,-1.03938 -2.24701,-1.68527 -0.5918,-0.64589 -0.98673,-1.15612 -1.29203,-2.0785 -0.30531,-0.92236 -0.37221,-2.16536 -0.28088,-3.37053 0.0913,-1.20517 0.38492,-2.63257 0.89881,-3.76376 0.51388,-1.13119 1.16778,-1.94496 1.93465,-2.92113 0.76687,-0.97617 1.96049,-2.11104 2.91148,-2.92114 0.95098,-0.81007 1.90562,-1.42243 2.84992,-1.90997 0.94429,-0.48752 1.74518,-0.95761 2.67175,-1.30704 0.92655,-0.34944 1.93515,-0.57465 2.88962,-0.77144 0.9545,-0.19679 1.85023,-0.23372 2.64026,-0.22471 0.79001,0.008 1.46432,0.0539 2.07849,0.22471 0.61417,0.17075 1.16011,0.37274 1.57293,0.73027 0.41282,0.35755 0.71495,0.82728 0.84263,1.29204 0.12769,0.46477 0.0927,1.00889 -0.0563,1.34822 -0.14892,0.3393 -0.35906,0.46127 -0.61793,0.61792 -0.25889,0.15665 -0.63766,0.26479 -0.8988,0.28088 -0.26114,0.0161 -0.39237,-0.0892 -0.60596,-0.24419 -0.2136,-0.15501 -0.32174,-0.4343 -0.58875,-0.72884 z"
       id="path4907"
       inkscape:connector-curvature="0"
       sodipodi:nodetypes="zzzzzzzzzzzzzzzzzzzzzzzzzzzzzzzzzzzzzzzzzzz"
       inkscape:export-xdpi="90"
       inkscape:export-ydpi="90" />
    <path
       style="opacity:1;fill:#fea815;fill-opacity:1;fill-rule:evenodd;stroke:none;stroke-width:0.31777704px;stroke-linecap:butt;stroke-linejoin:miter;stroke-opacity:1"
       d="m 155.95027,254.28869 c -0.57284,0.0446 -1.29299,0.18792 -1.85392,0.50582 -0.56092,0.31793 -1.00275,0.80938 -1.40455,1.34807 -0.40181,0.53872 -0.72547,1.25844 -0.9552,1.85392 -0.22971,0.59548 -0.44934,1.68508 -0.44934,1.68508 0,0 -1.1088,0.11375 -1.46042,0.33702 -0.35163,0.22325 -0.50115,0.47965 -0.61818,0.78638 -0.11698,0.30672 -0.21294,0.61912 -0.0607,0.9676 0.15211,0.34847 0.63908,0.75357 1.01601,0.82983 0.37692,0.0762 0.9552,-0.28054 0.9552,-0.28054 0,0 0.021,0.54269 0.0559,1.01106 0.0349,0.46835 -6.3e-4,1.29295 0.16882,1.79742 0.16932,0.50446 0.39188,0.81273 0.72989,1.17987 0.33803,0.36714 0.77071,0.70919 1.29222,0.9552 0.52149,0.24599 1.21088,0.47808 1.79742,0.44934 0.58653,-0.0287 1.0764,-0.34489 1.57337,-0.56169 0.49697,-0.21679 0.98354,-0.39811 1.40393,-0.73051 0.42039,-0.3324 0.75729,-0.79321 1.06752,-1.23574 0.31025,-0.44253 0.59009,-0.92261 0.78638,-1.40454 0.1963,-0.48193 0.43847,-1.07262 0.3935,-1.46041 -0.0449,-0.38777 -0.19187,-0.55302 -0.3935,-0.73051 -0.20162,-0.17749 -0.45692,-0.28568 -0.72989,-0.28055 -0.27297,0.005 -0.5697,0.12135 -0.78699,0.33703 -0.21731,0.21565 -0.19158,0.48413 -0.39288,0.89871 -0.2013,0.41457 -0.84286,1.57273 -0.84286,1.57273 0,0 -0.55649,0.86737 -0.95456,1.06754 -0.39811,0.20018 -0.88669,0.18843 -1.23636,0.1123 -0.34967,-0.0761 -0.59632,-0.24846 -0.78638,-0.44935 -0.19004,-0.20091 -0.26819,-0.37043 -0.33702,-0.67405 -0.0688,-0.3036 -0.0553,-0.79038 0.0198,-1.11408 0.0751,-0.32369 0.17165,-0.53992 0.37363,-0.7963 0.20201,-0.25638 0.3287,-0.33488 0.84224,-0.67403 0.51354,-0.33916 2.30327,-1.23573 2.30327,-1.23573 l 1.6857,-0.89873 c 0,0 0.67948,-0.40746 0.89871,-0.78637 0.21925,-0.37888 0.33688,-0.92196 0.28056,-1.40454 -0.0563,-0.48256 -0.3672,-0.96284 -0.61755,-1.34808 -0.25039,-0.38523 -0.46142,-0.69614 -0.84287,-0.9552 -0.38145,-0.25902 -0.91455,-0.39146 -1.40455,-0.50521 -0.49002,-0.11373 -0.94346,-0.21343 -1.51627,-0.1688 z m 0.61755,2.02212 c 0.35206,0.0935 0.73051,0.50582 0.73051,0.50582 0,0 0.49908,0.39201 0.5617,0.61817 0.0626,0.22617 0.0347,0.34212 -0.1123,0.5617 -0.14708,0.21958 -0.47053,0.34968 -0.84286,0.56168 -0.37234,0.21205 -0.86126,0.47155 -1.40455,0.67405 -0.5433,0.20251 -1.8533,0.50521 -1.8533,0.50521 0,0 -0.12753,-0.91099 -0.012,-1.34806 0.11578,-0.43708 0.40514,-0.84941 0.68583,-1.17989 0.28068,-0.33046 0.56364,-0.62663 0.95458,-0.78635 0.39093,-0.15975 0.94013,-0.20581 1.29221,-0.11231 z"
       id="path4911"
       inkscape:connector-curvature="0"
       sodipodi:nodetypes="zzzzczzzzczzzzzzzzzzzzzzczzzzzzzcczzzzzzzczzzzczzzz"
       inkscape:export-xdpi="90"
       inkscape:export-ydpi="90" />
    <path
       style="fill:#fea815;fill-opacity:1;fill-rule:evenodd;stroke:none;stroke-width:0.31777704px;stroke-linecap:butt;stroke-linejoin:miter;stroke-opacity:1"
       d="m 161.00573,265.69231 c 0.0663,-0.27639 0.18747,-2.27027 0.30898,-3.4267 0.12149,-1.15642 0.32151,-2.47581 0.42131,-3.51097 0.0998,-1.03515 0.19662,-2.69644 0.19662,-2.69644 l 0.36512,-1.32012 0.56177,-0.39323 0.98308,0.1123 0.58983,0.64602 0.11229,0.98309 0.0844,1.74142 0.87073,-1.20777 c 0,0 0.67261,-0.79896 1.06733,-1.09542 0.39472,-0.29644 0.86352,-0.55707 1.26394,-0.67411 0.40044,-0.1171 0.7046,-0.16316 1.06735,-0.0844 0.36276,0.079 0.73073,0.29608 1.01116,0.56177 0.28045,0.26568 0.45472,0.53004 0.61793,0.98306 0.16321,0.45303 0.18317,1.15065 0.22471,1.71337 0.0416,0.5627 0.0283,1.11406 0.028,1.65717 -1.6e-4,0.54312 -0.0508,1.12737 -0.028,1.60101 0.0227,0.47364 0.0928,0.87076 0.14044,1.23586 0.0475,0.3651 0.0146,0.70476 0.14043,0.95498 0.12576,0.25022 0.30283,0.40034 0.50559,0.50559 0.20276,0.1052 0.37393,0.16974 0.64601,0.11229 0.27209,-0.0574 0.54045,-0.28133 0.84263,-0.56174 0.3022,-0.28042 0.62552,-0.73409 0.89883,-1.15161 0.27329,-0.41753 0.55615,-0.87485 0.73027,-1.34822 0.1741,-0.47335 0.28438,-1.0527 0.30896,-1.46055 0.0246,-0.40787 -0.0843,-0.955 -0.0843,-0.955 0,0 -0.88934,-0.0647 -1.29204,-0.1123 -0.4027,-0.0476 -0.86978,0.0401 -1.12351,-0.16852 -0.25372,-0.2087 -0.24711,-0.48893 -0.28087,-0.78647 -0.0337,-0.29754 -0.0542,-0.7503 0.1123,-0.95499 0.16655,-0.20466 0.1641,-0.12751 0.58985,-0.19659 0.42574,-0.0691 1.96615,0 1.96615,0 0,0 0.34189,-0.80041 0.53365,-1.23587 0.19177,-0.43544 0.37192,-0.95337 0.61794,-1.37631 0.24601,-0.42291 0.51647,-0.82268 0.74433,-1.15159 0.22784,-0.32893 0.39342,-0.60227 0.63197,-0.81456 0.23854,-0.21227 0.55101,-0.37828 0.84264,-0.42131 0.29162,-0.043 0.56567,0.0188 0.81453,0.14044 0.24886,0.12153 0.49445,0.24353 0.61794,0.56175 0.12348,0.31825 0.0364,0.78429 -0.1123,1.20777 -0.14872,0.42351 -0.66841,0.92893 -0.81453,1.23587 -0.14614,0.30696 -0.16854,0.53369 -0.16854,0.53369 0,0 0.0568,0.22711 0.22471,0.33704 0.16786,0.1099 0.34825,0.15947 0.78646,0.14044 0.4382,-0.019 1.18435,-0.32303 1.76953,-0.47748 0.58517,-0.15446 1.19361,-0.31401 1.74144,-0.44943 0.54782,-0.13542 1.09036,-0.35176 1.54482,-0.36514 0.45446,-0.0133 0.84648,0.0214 1.12351,0.19662 0.27704,0.1752 0.366,0.4401 0.4775,0.67411 0.11145,0.23401 0.14412,0.40683 0.19662,0.70219 0.0524,0.29535 0.0817,0.82837 0.0842,1.06734 -0.0124,0.12725 0.1123,0.56175 0.1123,0.56175 0,0 0.58265,-0.12399 0.84263,-0.28088 0.25998,-0.15688 0.4271,-0.47194 0.67408,-0.64601 0.24701,-0.17405 0.49172,-0.26525 0.78647,-0.39323 0.29476,-0.12799 0.65297,-0.35168 0.98309,-0.36514 0.33011,-0.0134 0.60324,0.11277 0.8988,0.2528 0.29556,0.14002 0.63386,0.34444 0.84262,0.58983 0.20877,0.24539 0.24366,0.54242 0.39324,0.81456 0.14959,0.27211 0.39145,0.49511 0.50559,0.81454 0.11409,0.31942 0.17847,0.76424 0.14043,1.06734 -0.0382,0.30308 -0.0836,0.4961 -0.28088,0.70219 -0.19727,0.20607 -0.56297,0.40364 -0.87072,0.39322 -0.30776,-0.011 -0.51098,-0.2096 -0.78645,-0.42131 -0.27547,-0.21172 -0.61197,-0.66126 -0.81457,-0.87073 -0.20258,-0.20944 -0.19351,-0.31496 -0.39321,-0.39323 -0.1997,-0.0782 -0.50228,-0.0607 -0.73029,0.0281 -0.22799,0.0887 -0.32316,0.22599 -0.56175,0.47748 -0.23858,0.2515 -0.59089,0.76221 -0.81455,1.06733 -0.22367,0.30514 -0.40397,0.50147 -0.53366,0.75838 -0.1297,0.2569 -0.15998,0.38958 -0.2528,0.75836 -0.0928,0.36879 -0.20174,0.91628 -0.25278,1.46058 -0.051,0.54429 -0.0186,1.24989 -0.028,1.79762 -0.0102,0.5477 0.10334,1.07927 -0.028,1.48864 -0.1314,0.40939 -0.33053,0.66789 -0.61794,0.8988 -0.28741,0.23094 -0.71323,0.41446 -1.03924,0.42133 -0.32602,0.006 -0.54943,-0.14693 -0.78647,-0.28087 -0.23701,-0.13396 -0.38975,-0.13501 -0.61791,-0.50558 -0.22818,-0.37058 -0.33975,-1.1558 -0.39324,-1.76954 -0.0534,-0.61376 -0.0434,-1.26543 0.0842,-1.88188 0.12777,-0.61646 0.46839,-1.18878 0.6741,-1.76954 0.2057,-0.58077 0.40163,-1.24084 0.56175,-1.71334 0.16013,-0.47252 0.30733,-0.72752 0.39324,-1.12351 0.086,-0.39601 0.17205,-0.90458 0.1123,-1.23588 -0.0596,-0.33128 -0.16069,-0.5709 -0.33705,-0.70218 -0.17636,-0.1313 -0.20195,-0.084 -0.53365,-0.0842 -0.33172,-1.9e-4 -0.85397,0.0954 -1.43249,0.22469 -0.57852,0.12917 -1.41094,0.45924 -2.02233,0.58984 -0.61138,0.13058 -1.12824,0.14928 -1.62908,0.2247 -0.50087,0.0754 -1.37631,0.2247 -1.37631,0.2247 0,0 -0.10165,1.02449 -0.11229,1.57292 -0.011,0.54843 0.0249,1.00636 0.0563,1.71335 0.0312,0.707 0.0124,1.99319 0.14044,2.5279 0.12802,0.53473 0.14572,0.47436 0.30895,0.7022 0.16324,0.22784 0.41609,0.51202 0.67412,0.61793 0.25801,0.10597 0.45408,0.0185 0.75835,0.028 0.30428,0.0102 0.77709,-0.0753 1.06734,0.028 0.29026,0.10346 0.46232,0.26851 0.61794,0.47749 0.15561,0.209 0.26751,0.42978 0.28088,0.73028 0.0133,0.30053 -0.10013,0.69564 -0.28088,0.98308 -0.1807,0.28743 -0.40919,0.50569 -0.75838,0.67412 -0.34919,0.16842 -0.80717,0.22578 -1.29203,0.22469 -0.48488,-9.9e-4 -1.06547,-0.0593 -1.57292,-0.28088 -0.50745,-0.22161 -1.0548,-0.54927 -1.37629,-1.03925 -0.32152,-0.48998 -0.36941,-1.18913 -0.50559,-1.72738 -0.13618,-0.53828 -0.19209,-1.17438 -0.21066,-1.57292 -0.0186,-0.39857 0.0422,-0.77241 0.0422,-0.77241 0,0 -0.6976,1.18605 -1.03924,1.65717 -0.34164,0.47111 -0.63988,0.88332 -0.98307,1.17968 -0.34319,0.29636 -0.5673,0.48036 -1.01118,0.61794 -0.44386,0.13757 -1.17544,0.17297 -1.60099,0.0842 -0.42555,-0.0887 -0.65597,-0.27907 -0.89881,-0.44941 -0.24284,-0.17034 -0.32043,-0.21555 -0.56175,-0.53365 -0.24132,-0.31812 -0.60399,-0.93124 -0.75838,-1.43249 -0.15438,-0.50125 -0.13607,-0.93093 -0.16851,-1.51674 -0.0324,-0.58582 0.006,-1.46992 0,-1.99423 -0.005,-0.52432 0.0102,-0.82314 -0.028,-1.1516 -0.0377,-0.32847 -0.0745,-0.57834 -0.16853,-0.81455 -0.0941,-0.2362 -0.21869,-0.46685 -0.36513,-0.58985 -0.14647,-0.12298 -0.24193,-0.15046 -0.42133,-0.16852 -0.1794,-0.0181 -0.42401,0.006 -0.61792,0.1123 -0.19392,0.1051 -0.26975,0.23051 -0.4775,0.50558 -0.20776,0.27506 -0.47733,0.77699 -0.7022,1.17968 -0.22487,0.4027 -0.45486,0.77179 -0.64602,1.23587 -0.19116,0.46409 -0.30908,1.02045 -0.47749,1.54482 -0.16841,0.52439 -0.37317,1.03431 -0.53366,1.60101 -0.1605,0.5667 -0.32756,1.31889 -0.42134,1.79762 -0.0937,0.47871 -3e-4,0.83754 -0.1685,1.06733 -0.16822,0.22978 -0.31427,0.239 -0.56178,0.28088 -0.24748,0.0419 -0.62566,-0.008 -0.87071,-0.11229 -0.24505,-0.104 -0.38769,-0.28726 -0.52664,-0.44765 -0.13897,-0.16041 -0.27773,-0.3097 -0.28088,-0.4775 -0.004,-0.1678 0.011,-0.17477 0.0772,-0.45118 z"
       id="path4916"
       inkscape:connector-curvature="0"
       sodipodi:nodetypes="zzzcccccccczzzzzzzzzzzzzzzzczzzzzczzzzzzzzzczzzzzzzzcczzzzzzzzzzzzzzzzzzzzzzzzzzzzzzzzzzzzzczzzzzzzzzzzzzzzzczzzzzzzzzzzzzzzzzzzzzzzzzz"
       inkscape:export-xdpi="90"
       inkscape:export-ydpi="90" />
    <path
       style="opacity:1;fill:#fea815;fill-opacity:1;fill-rule:evenodd;stroke:none;stroke-width:0.31777704px;stroke-linecap:butt;stroke-linejoin:miter;stroke-opacity:1"
       d="m 199.10903,254.25743 c -0.57281,0.0446 -1.29299,0.18792 -1.8539,0.50585 -0.56092,0.31789 -1.00276,0.80935 -1.40455,1.34807 -0.4018,0.5387 -0.72549,1.25842 -0.9552,1.85389 -0.22972,0.59548 -0.44936,1.68509 -0.44936,1.68509 0,0 -1.10878,0.11374 -1.46039,0.33703 -0.35164,0.22323 -0.50115,0.47964 -0.61819,0.78635 -0.11698,0.30673 -0.21292,0.61915 -0.0607,0.96761 0.15209,0.34847 0.63908,0.75357 1.01601,0.82983 0.37693,0.0762 0.95518,-0.28055 0.95518,-0.28055 0,0 0.0208,0.54271 0.0559,1.01106 0.0349,0.46835 -6.4e-4,1.29295 0.16881,1.79741 0.16932,0.50449 0.39187,0.81274 0.72989,1.17989 0.33802,0.36715 0.77072,0.70919 1.29222,0.95518 0.5215,0.24601 1.21091,0.47812 1.79742,0.44937 0.58653,-0.0287 1.07639,-0.3449 1.57337,-0.5617 0.49698,-0.2168 0.98353,-0.3981 1.40393,-0.73053 0.42039,-0.33239 0.7573,-0.79318 1.06754,-1.23571 0.31024,-0.44254 0.59006,-0.92264 0.78636,-1.40454 0.1963,-0.48193 0.43848,-1.07264 0.39351,-1.46043 -0.0449,-0.38776 -0.19188,-0.55301 -0.39351,-0.73051 -0.20162,-0.17748 -0.45692,-0.28568 -0.72989,-0.28052 -0.27296,0.005 -0.56968,0.12133 -0.78698,0.33701 -0.21731,0.21568 -0.19158,0.48413 -0.3929,0.89872 -0.20131,0.41457 -0.84284,1.57274 -0.84284,1.57274 0,0 -0.55648,0.86736 -0.95457,1.06753 -0.3981,0.20017 -0.88668,0.18843 -1.23635,0.11231 -0.34968,-0.0761 -0.59632,-0.24847 -0.78638,-0.44938 -0.19006,-0.20089 -0.2682,-0.37042 -0.33701,-0.67403 -0.0688,-0.3036 -0.0553,-0.79039 0.0198,-1.11408 0.0751,-0.32369 0.17165,-0.53992 0.37365,-0.79631 0.20199,-0.25637 0.32868,-0.33487 0.84223,-0.67402 0.51353,-0.33917 2.30327,-1.23574 2.30327,-1.23574 l 1.6857,-0.89872 c 0,0 0.67947,-0.40747 0.89871,-0.78637 0.21923,-0.37889 0.33688,-0.92198 0.28054,-1.40455 -0.0563,-0.48256 -0.3672,-0.96282 -0.61756,-1.34807 -0.25035,-0.38523 -0.4614,-0.69615 -0.84285,-0.95519 -0.38146,-0.25902 -0.91452,-0.39147 -1.40454,-0.50522 -0.49002,-0.11373 -0.94345,-0.21342 -1.51629,-0.16881 z m 0.61756,2.0221 c 0.35208,0.0935 0.7305,0.50583 0.7305,0.50583 0,0 0.49909,0.39202 0.56171,0.61819 0.0627,0.22616 0.0347,0.34212 -0.11229,0.56169 -0.14708,0.21958 -0.47053,0.34969 -0.84286,0.56171 -0.37234,0.212 -0.86125,0.47151 -1.40454,0.67403 -0.54331,0.2025 -1.85329,0.50521 -1.85329,0.50521 0,0 -0.12755,-0.91099 -0.012,-1.34807 0.11579,-0.43707 0.40514,-0.84942 0.68584,-1.17988 0.28068,-0.33045 0.56363,-0.62664 0.95457,-0.78636 0.39093,-0.15975 0.94013,-0.2058 1.2922,-0.1123 z"
       id="path4911-0"
       inkscape:connector-curvature="0"
       sodipodi:nodetypes="zzzzczzzzczzzzzzzzzzzzzzczzzzzzzcczzzzzzzczzzzczzzz"
       inkscape:export-xdpi="90"
       inkscape:export-ydpi="90" />
    <g
       aria-label="Ashford"
       transform="matrix(1.1682801,0,0,1.2347331,-9.5433164,214.80116)"
       style="font-style:normal;font-variant:normal;font-weight:normal;font-stretch:normal;font-size:10.29459667px;line-height:125%;font-family:'Apple Braille';-inkscape-font-specification:'Apple Braille';letter-spacing:0px;word-spacing:0px;fill:#ffffff;fill-opacity:1;stroke:none;stroke-width:0.25736493px;stroke-linecap:butt;stroke-linejoin:miter;stroke-opacity:1"
       id="text3819"
       inkscape:export-xdpi="90"
       inkscape:export-ydpi="90">
      <path
         d="m 138.47311,55.669334 0.97296,-2.741041 h 0.0209 l 0.94158,2.741041 z m 0.15693,-4.582351 -2.82474,7.46986 h 1.65299 l 0.58588,-1.663456 h 2.79335 l 0.56494,1.663456 h 1.70531 l -2.79335,-7.46986 z"
         style="font-style:normal;font-variant:normal;font-weight:bold;font-stretch:normal;font-family:'.Helvetica Neue DeskInterface';-inkscape-font-specification:'.Helvetica Neue DeskInterface Bold';fill:#ffffff;fill-opacity:1;stroke-width:0.25736493px"
         id="path4892"
         inkscape:connector-curvature="0" />
      <path
         d="m 144.7418,56.799229 h -1.41237 q 0.0209,0.544023 0.24063,0.910193 0.23016,0.355707 0.57541,0.575409 0.3557,0.219702 0.80557,0.31386 0.44987,0.09416 0.92066,0.09416 0.46032,0 0.89973,-0.09416 0.44986,-0.0837 0.79511,-0.303398 0.34524,-0.219702 0.55448,-0.575409 0.2197,-0.36617 0.2197,-0.899731 0,-0.376632 -0.14646,-0.62772 -0.14647,-0.261549 -0.3871,-0.428941 -0.24062,-0.177854 -0.55448,-0.282474 -0.3034,-0.10462 -0.62772,-0.177854 -0.31386,-0.07323 -0.61726,-0.136005 -0.3034,-0.06277 -0.54402,-0.136006 -0.23017,-0.0837 -0.37663,-0.20924 -0.14647,-0.125544 -0.14647,-0.324322 0,-0.167392 0.0837,-0.261549 0.0837,-0.10462 0.19878,-0.15693 0.12555,-0.05231 0.27201,-0.06277 0.14647,-0.02092 0.27202,-0.02092 0.39755,0 0.69049,0.15693 0.29293,0.146467 0.32432,0.575409 h 1.41237 q -0.0419,-0.502175 -0.26155,-0.826497 -0.20924,-0.334784 -0.53356,-0.533561 -0.32433,-0.198778 -0.74281,-0.282474 -0.40801,-0.0837 -0.84742,-0.0837 -0.4394,0 -0.85788,0.0837 -0.41848,0.07323 -0.75326,0.272012 -0.33479,0.188315 -0.54403,0.523099 -0.19877,0.334784 -0.19877,0.857883 0,0.355708 0.14646,0.606795 0.14647,0.240626 0.3871,0.408018 0.24062,0.15693 0.54402,0.26155 0.31386,0.09416 0.63818,0.167391 0.79511,0.167392 1.23452,0.334784 0.44986,0.167392 0.44986,0.502175 0,0.198778 -0.0942,0.334784 -0.0942,0.125544 -0.24062,0.20924 -0.13601,0.07323 -0.31386,0.115082 -0.16739,0.03139 -0.32432,0.03139 -0.2197,0 -0.42894,-0.05231 -0.19878,-0.05231 -0.35571,-0.15693 -0.15693,-0.115082 -0.26155,-0.282474 -0.0942,-0.177854 -0.0942,-0.418479 z"
         style="font-style:normal;font-variant:normal;font-weight:bold;font-stretch:normal;font-family:'.Helvetica Neue DeskInterface';-inkscape-font-specification:'.Helvetica Neue DeskInterface Bold';fill:#ffffff;fill-opacity:1;stroke-width:0.25736493px"
         id="path4894"
         inkscape:connector-curvature="0" />
      <path
         d="m 149.20073,51.086983 v 7.46986 h 1.4856 v -2.835199 q 0,-0.826497 0.27202,-1.182205 0.27201,-0.366169 0.8788,-0.366169 0.53356,0 0.7428,0.334783 0.20924,0.324322 0.20924,0.993889 v 3.054901 h 1.48561 V 55.22993 q 0,-0.502175 -0.0942,-0.910193 -0.0837,-0.418479 -0.3034,-0.700953 -0.2197,-0.292935 -0.60679,-0.449865 -0.37664,-0.167392 -0.97297,-0.167392 -0.41848,0 -0.85788,0.219702 -0.43941,0.209239 -0.72188,0.680029 h -0.0314 v -2.814275 z"
         style="font-style:normal;font-variant:normal;font-weight:bold;font-stretch:normal;font-family:'.Helvetica Neue DeskInterface';-inkscape-font-specification:'.Helvetica Neue DeskInterface Bold';fill:#ffffff;fill-opacity:1;stroke-width:0.25736493px"
         id="path4896"
         inkscape:connector-curvature="0" />
      <path
         d="m 155.738,54.141884 v 4.414959 h 1.48561 v -4.414959 h 1.02527 v -0.993889 h -1.02527 v -0.324322 q 0,-0.334784 0.12554,-0.470789 0.13601,-0.146468 0.4394,-0.146468 0.28248,0 0.54403,0.03139 v -1.108971 q -0.18832,-0.01046 -0.3871,-0.02092 -0.19877,-0.02092 -0.39755,-0.02092 -0.91019,0 -1.36006,0.460328 -0.44987,0.460327 -0.44987,1.182204 v 0.41848 h -0.88926 v 0.993889 z"
         style="font-style:normal;font-variant:normal;font-weight:bold;font-stretch:normal;font-family:'.Helvetica Neue DeskInterface';-inkscape-font-specification:'.Helvetica Neue DeskInterface Bold';fill:#ffffff;fill-opacity:1;stroke-width:0.25736493px"
         id="path4898"
         inkscape:connector-curvature="0" />
      <path
         d="m 160.21034,55.85765 q 0,-0.324322 0.0628,-0.638182 0.0628,-0.313859 0.20924,-0.554485 0.15693,-0.240626 0.40802,-0.387093 0.25109,-0.15693 0.62772,-0.15693 0.37663,0 0.62772,0.15693 0.26155,0.146467 0.40802,0.387093 0.15693,0.240626 0.2197,0.554485 0.0628,0.31386 0.0628,0.638182 0,0.324321 -0.0628,0.638181 -0.0628,0.303398 -0.2197,0.554485 -0.14647,0.240626 -0.40802,0.387094 -0.25109,0.146468 -0.62772,0.146468 -0.37663,0 -0.62772,-0.146468 -0.25109,-0.146468 -0.40802,-0.387094 -0.14647,-0.251087 -0.20924,-0.554485 -0.0628,-0.31386 -0.0628,-0.638181 z m -1.4856,0 q 0,0.648643 0.19878,1.171742 0.19877,0.5231 0.56494,0.899731 0.36617,0.36617 0.87881,0.564948 0.51264,0.198778 1.15082,0.198778 0.63818,0 1.15082,-0.198778 0.5231,-0.198778 0.88927,-0.564948 0.36617,-0.376631 0.56494,-0.899731 0.19878,-0.523099 0.19878,-1.171742 0,-0.648644 -0.19878,-1.171743 -0.19877,-0.533561 -0.56494,-0.899731 -0.36617,-0.376632 -0.88927,-0.575409 -0.51264,-0.20924 -1.15082,-0.20924 -0.63818,0 -1.15082,0.20924 -0.51264,0.198777 -0.87881,0.575409 -0.36617,0.36617 -0.56494,0.899731 -0.19878,0.523099 -0.19878,1.171743 z"
         style="font-style:normal;font-variant:normal;font-weight:bold;font-stretch:normal;font-family:'.Helvetica Neue DeskInterface';-inkscape-font-specification:'.Helvetica Neue DeskInterface Bold';fill:#ffffff;fill-opacity:1;stroke-width:0.25736493px"
         id="path4900"
         inkscape:connector-curvature="0" />
      <path
         d="m 165.28604,53.147995 v 5.408848 h 1.4856 v -2.437644 q 0,-0.366169 0.0732,-0.680029 0.0732,-0.313859 0.24062,-0.544023 0.17786,-0.240626 0.46033,-0.376632 0.28247,-0.136006 0.69049,-0.136006 0.13601,0 0.28247,0.02092 0.14647,0.01046 0.25109,0.03139 v -1.380982 q -0.17785,-0.05231 -0.32432,-0.05231 -0.28247,0 -0.54402,0.0837 -0.26155,0.0837 -0.49172,0.240626 -0.23016,0.146467 -0.40801,0.366169 -0.17786,0.20924 -0.28248,0.460328 h -0.0209 v -1.004351 z"
         style="font-style:normal;font-variant:normal;font-weight:bold;font-stretch:normal;font-family:'.Helvetica Neue DeskInterface';-inkscape-font-specification:'.Helvetica Neue DeskInterface Bold';fill:#ffffff;fill-opacity:1;stroke-width:0.25736493px"
         id="path4902"
         inkscape:connector-curvature="0" />
      <path
         d="m 173.01622,55.836726 q 0,0.334783 -0.0628,0.648643 -0.0628,0.31386 -0.20924,0.564947 -0.14647,0.240626 -0.39756,0.387094 -0.24062,0.146468 -0.60679,0.146468 -0.34525,0 -0.59633,-0.146468 -0.24063,-0.15693 -0.40802,-0.397556 -0.15693,-0.251087 -0.23017,-0.564947 -0.0732,-0.31386 -0.0732,-0.627719 0,-0.334784 0.0628,-0.638182 0.0732,-0.313859 0.2197,-0.554485 0.15693,-0.240626 0.40802,-0.387093 0.25109,-0.146468 0.61726,-0.146468 0.36617,0 0.60679,0.146468 0.24063,0.146467 0.3871,0.387093 0.15693,0.230164 0.2197,0.544023 0.0628,0.303398 0.0628,0.638182 z m 0.0209,2.029626 v 0.690491 h 1.41236 v -7.46986 h -1.4856 V 53.8071 h -0.0209 q -0.25109,-0.397556 -0.69049,-0.596333 -0.42894,-0.20924 -0.9102,-0.20924 -0.59633,0 -1.04619,0.240626 -0.44987,0.230163 -0.75327,0.617257 -0.29293,0.387094 -0.44986,0.899731 -0.14647,0.502175 -0.14647,1.046199 0,0.564947 0.14647,1.088047 0.15693,0.523099 0.44986,0.931117 0.3034,0.397555 0.76373,0.638181 0.46032,0.230164 1.06712,0.230164 0.53356,0 0.95204,-0.188316 0.42894,-0.198778 0.69049,-0.638181 z"
         style="font-style:normal;font-variant:normal;font-weight:bold;font-stretch:normal;font-family:'.Helvetica Neue DeskInterface';-inkscape-font-specification:'.Helvetica Neue DeskInterface Bold';fill:#ffffff;fill-opacity:1;stroke-width:0.25736493px"
         id="path4904"
         inkscape:connector-curvature="0" />
    </g>
    <path
       style="fill:#33326a;fill-opacity:1;fill-rule:evenodd;stroke:none;stroke-width:0.26331487px;stroke-linecap:butt;stroke-linejoin:miter;stroke-opacity:1"
       d="m 8.1271219,250.70024 h 4.1317051 l 4.115078,11.70099 h 0.05035 l 4.148236,-11.69488 4.168817,0.002 -6.101502,16.63101 h -4.557608 z"
       id="path147"
       inkscape:connector-curvature="0" />
    <path
       style="fill:#33326a;fill-opacity:1;fill-rule:evenodd;stroke:none;stroke-width:0.26331487px;stroke-linecap:butt;stroke-linejoin:miter;stroke-opacity:1"
       d="m 30.800159,253.77862 c -0.41981,-0.004 -0.922775,0.0219 -1.280057,0.0699 -0.357284,0.048 -0.528815,0.0853 -0.860916,0.18617 -0.332103,0.10094 -0.754956,0.2635 -1.117037,0.4423 -0.362069,0.17878 -0.669436,0.37606 -0.907713,0.56211 -0.238279,0.18604 -0.394541,0.32939 -0.534348,0.47674 -0.139796,0.14735 -0.293966,0.28447 -0.443309,0.47365 -0.149343,0.18919 -0.330093,0.45292 -0.465434,0.67476 -0.13533,0.22183 -0.242614,0.40759 -0.349196,0.65212 -0.106626,0.24451 -0.193372,0.5275 -0.279253,0.81462 -0.08594,0.28712 -0.169902,0.58488 -0.232981,0.90719 -0.06305,0.32232 -0.112483,0.68644 -0.139369,1.02447 -0.02682,0.33803 -0.03525,0.67439 -0.0231,1.0008 0.01205,0.3264 0.05025,0.6396 0.09305,0.95401 0.04281,0.3144 0.08309,0.6429 0.162512,0.93085 0.07948,0.28796 0.201889,0.53938 0.302922,0.79148 0.101047,0.25212 0.168194,0.46732 0.302396,0.72155 0.134203,0.25423 0.332644,0.55101 0.512234,0.79149 0.179589,0.24047 0.348167,0.45242 0.558518,0.6516 0.21034,0.19918 0.453009,0.37152 0.697877,0.53486 0.244869,0.16334 0.52305,0.31902 0.768345,0.44229 0.245306,0.12327 0.403658,0.20146 0.697892,0.30291 0.294231,0.10144 0.736089,0.21497 1.070747,0.27926 0.334655,0.0643 0.631271,0.10154 0.930857,0.11624 0.299587,0.0147 0.589655,-0.003 0.861432,-0.0231 0.271776,-0.0202 0.511697,-0.0543 0.767829,-0.0931 0.256131,-0.0388 0.5116,-0.0741 0.768345,-0.13989 0.256745,-0.0658 0.490914,-0.1414 0.767831,-0.25609 0.276915,-0.11471 0.62912,-0.29214 0.884573,-0.44179 0.255452,-0.14965 0.423031,-0.25015 0.6516,-0.44228 0.228572,-0.19212 0.479831,-0.46121 0.697887,-0.72154 0.218057,-0.26033 0.448579,-0.57515 0.605316,-0.83777 0.15674,-0.26263 0.243726,-0.4653 0.349202,-0.72155 0.105477,-0.25625 0.194723,-0.49653 0.279258,-0.81463 0.08453,-0.3181 0.156051,-0.76386 0.209314,-1.09389 0.05326,-0.33002 0.10007,-0.57338 0.116743,-0.88458 0.01668,-0.31118 -0.0044,-0.64773 -0.02365,-0.97766 -0.01924,-0.32992 -0.02956,-0.6379 -0.0931,-1.00029 -0.06354,-0.36237 -0.19655,-0.85041 -0.302402,-1.16381 -0.105849,-0.31342 -0.179252,-0.46088 -0.302402,-0.72155 -0.123146,-0.26066 -0.260127,-0.5641 -0.442284,-0.83777 -0.182158,-0.27369 -0.420859,-0.55866 -0.651601,-0.79149 -0.230745,-0.23284 -0.457381,-0.41786 -0.721547,-0.60532 -0.264163,-0.18746 -0.569871,-0.36045 -0.861428,-0.51171 -0.291562,-0.15125 -0.584153,-0.29081 -0.88406,-0.39549 -0.29991,-0.10466 -0.550183,-0.17416 -0.907718,-0.23298 -0.357531,-0.0589 -0.813961,-0.0891 -1.233773,-0.0931 z m -0.02316,2.67635 c 0.278128,4.5e-4 0.391065,0.0178 0.651603,0.0931 0.26054,0.0752 0.595371,0.18721 0.884575,0.39548 0.2892,0.20828 0.561408,0.48703 0.790972,0.86143 0.229564,0.37439 0.400448,0.88048 0.512231,1.37315 0.111779,0.49267 0.132236,1.09254 0.139886,1.55932 0.0076,0.46677 -0.0089,0.85205 -0.06994,1.23377 -0.06104,0.38173 -0.134992,0.70971 -0.27926,1.04709 -0.144264,0.33737 -0.339554,0.68692 -0.582169,0.954 -0.242617,0.26709 -0.506869,0.47096 -0.837773,0.62847 -0.330908,0.1575 -0.781545,0.25617 -1.117033,0.27925 -0.335487,0.0231 -0.550448,-0.015 -0.860915,-0.0931 -0.31047,-0.078 -0.684777,-0.20151 -0.977659,-0.39551 -0.292883,-0.19398 -0.529501,-0.42433 -0.74469,-0.74467 -0.215185,-0.32034 -0.371905,-0.73038 -0.489085,-1.16384 -0.117169,-0.43344 -0.162655,-0.94073 -0.186169,-1.41943 -0.02353,-0.47869 -0.02474,-0.94318 0.04686,-1.44309 0.07159,-0.49989 0.203465,-1.14438 0.39548,-1.53616 0.192006,-0.39179 0.575938,-0.81837 0.837771,-1.02395 0.261833,-0.2056 0.565717,-0.36275 0.884572,-0.46543 0.318858,-0.10269 0.722675,-0.14033 1.000801,-0.13989 z"
       id="path954"
       inkscape:connector-curvature="0" />
    <path
       style="fill:#fea815;fill-opacity:1;fill-rule:evenodd;stroke:#fea815;stroke-width:0.31930786px;stroke-linecap:butt;stroke-linejoin:miter;stroke-opacity:1"
       d="m 6.8073793,34.17582 197.1675607,-1e-5 -0.10897,6.30063 c 0,0 -0.0716,9.69466 -11.74598,9.92135 -11.74597,0.22808 -174.707016,-0.11404 -174.707016,-0.11404 0,0 -9.5323739,0.62953 -10.6055826,-11.17577 1.2e-5,-4.93217 0.022013,-2.10046 1.2e-5,-4.93216 z"
       id="path91-3"
       inkscape:connector-curvature="0"
       sodipodi:nodetypes="cccsccc"
       inkscape:export-xdpi="90"
       inkscape:export-ydpi="90" />
    <path
       style="opacity:1;fill:#33326a;fill-opacity:1;stroke:none;stroke-width:1.20683289"
       d="m 39.400793,10.29582 3.845104,-1.71058 v 18.65075 l -3.845105,0.007 z"
       id="rect3951-9"
       inkscape:connector-curvature="0"
       sodipodi:nodetypes="ccccc"
       inkscape:export-xdpi="90"
       inkscape:export-ydpi="90" />
    <g
       aria-label="t"
       transform="matrix(1.2005332,0,0,1.2131657,-9.9562847,-25.55815)"
       style="font-style:normal;font-weight:normal;font-size:21.20690155px;line-height:125%;font-family:sans-serif;letter-spacing:0px;word-spacing:0px;opacity:1;fill:#33326a;fill-opacity:1;stroke:none;stroke-width:0.53017253px;stroke-linecap:butt;stroke-linejoin:miter;stroke-opacity:1"
       id="text3823-2-0"
       inkscape:export-xdpi="90"
       inkscape:export-ydpi="90">
      <path
         d="m 76.900738,32.466655 2e-6,-3.112091 -3.060347,1.27952 v 1.832571 h -2.27289 v 2.575655 h 2.27289 l 2e-6,6.273464 c 0,0.560345 0.09339,1.012931 0.280172,1.357759 0.186782,0.344827 0.438219,0.610632 0.754311,0.797414 0.330459,0.186781 0.704023,0.308908 1.12069,0.366379 0.440533,0.04372 0.788959,0.06328 1.27566,-0.01729 0.297591,-0.04926 0.666022,-0.14408 0.965402,-0.245464 0.363134,-0.122974 0.713399,-0.327558 0.922282,-0.501639 l 0.485545,-2.769501 c -0.143784,0.0282 -0.552778,0.348214 -0.931176,0.616885 -0.118399,0.111662 -0.564193,0.366141 -0.744688,0.406768 -0.344928,0.07764 -0.636193,0.140026 -0.809232,-0.03286 -0.172489,-0.17234 -0.258621,-0.517242 -0.258621,-1.034483 l -2e-6,-5.217431 h 2.743719 v -2.575655 z"
         style="font-style:normal;font-variant:normal;font-weight:bold;font-stretch:normal;font-family:'.Helvetica Neue DeskInterface';-inkscape-font-specification:'.Helvetica Neue DeskInterface Bold';fill:#33326a;fill-opacity:1;stroke-width:0.53017253px"
         id="path3964-5"
         inkscape:connector-curvature="0"
         sodipodi:nodetypes="cccccccscccsscccssscccc" />
    </g>
    <g
       aria-label="e"
       transform="matrix(1.1974503,0,0,1.2162891,-9.7950097,-25.59847)"
       style="font-style:normal;font-weight:normal;font-size:20.5550499px;line-height:125%;font-family:sans-serif;letter-spacing:0px;word-spacing:0px;opacity:1;fill:#33326a;fill-opacity:1;stroke:none;stroke-width:0.51387626px;stroke-linecap:butt;stroke-linejoin:miter;stroke-opacity:1"
       id="text3823-1-2"
       inkscape:export-xdpi="90"
       inkscape:export-ydpi="90">
      <path
         d="m 88.811232,36.724454 h -4.825423 c 0.01393,-0.208893 0.05571,-0.445638 0.125335,-0.710235 0.08356,-0.264598 0.215856,-0.515269 0.396897,-0.752014 0.194967,-0.236745 0.445638,-0.431712 0.752014,-0.5849 0.320302,-0.167114 0.717198,-0.250671 1.190689,-0.250671 0.724161,0 1.260319,0.194966 1.608474,0.584899 0.362081,0.389933 0.612752,0.960907 0.752014,1.712921 z m -4.825423,1.880035 h 7.7917 c 0.05571,-0.835571 -0.01392,-1.636326 -0.208892,-2.402267 -0.194967,-0.76594 -0.515269,-1.448323 -0.960907,-2.047149 -0.431712,-0.598826 -0.988759,-1.072316 -1.671142,-1.420471 -0.682383,-0.362081 -1.483139,-0.543121 -2.402267,-0.543121 -0.821645,0 -1.573659,0.146225 -2.256042,0.438675 -0.668457,0.292449 -1.246394,0.696309 -1.733811,1.211578 -0.487416,0.501343 -0.863423,1.100169 -1.128021,1.796478 -0.264597,0.696309 -0.396896,1.448323 -0.396896,2.256042 0,0.835571 0.125336,1.601511 0.376007,2.29782 0.264597,0.696309 0.633641,1.295135 1.107132,1.796478 0.47349,0.501343 1.051427,0.891276 1.73381,1.1698 0.682383,0.264597 1.448386,0.407023 2.297821,0.396896 1.271704,-0.01516 2.557262,-0.447085 2.897697,-0.603529 0.839158,-0.385628 1.082181,-0.592654 1.55144,-1.021379 l -2.148439,-1.483832 c -0.161406,0.146354 -0.487102,0.331923 -1.026562,0.551859 -0.53946,0.219935 -1.360358,0.206426 -1.538549,0.183739 -0.17819,-0.02269 -0.974678,-0.172998 -1.420316,-0.60471 -0.445638,-0.431712 -0.821985,-1.012 -0.863763,-1.972907 z"
         style="font-style:normal;font-variant:normal;font-weight:bold;font-stretch:normal;font-family:'.Helvetica Neue DeskInterface';-inkscape-font-specification:'.Helvetica Neue DeskInterface Bold';fill:#33326a;fill-opacity:1;stroke-width:0.51387626px"
         id="path3979-2"
         inkscape:connector-curvature="0"
         sodipodi:nodetypes="cccccscccccccsccsscscsscczzsc" />
    </g>
    <path
       d="m 110.73297,19.04385 h -5.77821 c 0.0167,-0.25407 0.0667,-0.54202 0.15008,-0.86386 0.10006,-0.32183 0.25848,-0.62671 0.47527,-0.91466 0.23346,-0.28795 0.53363,-0.52509 0.9005,-0.7114 0.38354,-0.20327 0.85881,-0.3049 1.42579,-0.3049 0.86715,0 1.50917,0.23713 1.92607,0.71141 0.43357,0.47427 0.73374,1.16874 0.9005,2.08341 z m -5.77821,2.28666 h 9.33017 c 0.0667,-1.0163 -0.0166,-1.99025 -0.25014,-2.92185 -0.23346,-0.9316 -0.617,-1.76158 -1.15063,-2.48993 -0.51696,-0.72834 -1.18399,-1.30424 -2.00111,-1.7277 -0.81712,-0.4404 -1.77599,-0.66059 -2.8766,-0.66059 -0.98388,0 -1.88438,0.17785 -2.70149,0.53356 -0.80045,0.3557 -1.4925,0.84691 -2.07616,1.47363 -0.58365,0.60977 -1.0339,1.33812 -1.35075,2.18503 -0.31684,0.84692 -0.47526,1.76158 -0.47526,2.744 0,1.0163 0.15009,1.9479 0.45025,2.79482 0.31684,0.84691 0.75875,1.57525 1.32574,2.18503 0.56698,0.60978 1.25903,1.08405 2.07615,1.42282 0.81712,0.32183 1.73437,0.49506 2.75152,0.48273 1.52281,-0.0185 3.0622,-0.54378 3.46986,-0.73406 1.00484,-0.46904 1.29585,-0.72083 1.85776,-1.24229 l -2.57264,-1.80477 c -0.19328,0.178 -0.58329,0.40372 -1.22926,0.67122 -0.64598,0.2675 -1.62896,0.25107 -1.84234,0.22347 -0.21337,-0.0276 -1.16713,-0.21041 -1.70076,-0.73549 -0.53362,-0.52509 -0.98428,-1.23088 -1.03431,-2.39963 z"
       style="font-style:normal;font-variant:normal;font-weight:bold;font-stretch:normal;font-size:20.5550499px;line-height:125%;font-family:'.Helvetica Neue DeskInterface';-inkscape-font-specification:'.Helvetica Neue DeskInterface Bold';letter-spacing:0px;word-spacing:0px;opacity:1;fill:#33326a;fill-opacity:1;stroke:none;stroke-width:0.62016279px;stroke-linecap:butt;stroke-linejoin:miter;stroke-opacity:1"
       id="path3979-8-7"
       inkscape:connector-curvature="0"
       sodipodi:nodetypes="cccccscccccccsccsscscsscczzsc"
       inkscape:export-xdpi="90"
       inkscape:export-ydpi="90" />
    <path
       style="opacity:1;fill:#33326a;fill-opacity:1;fill-rule:evenodd;stroke:#000000;stroke-width:0.1206833;stroke-linecap:butt;stroke-linejoin:miter;stroke-miterlimit:4;stroke-dasharray:none;stroke-opacity:1"
       d="m 116.31385,13.7809 v 13.23329 h 3.61254 v -7.90286 c 0,0 0.007,-1.83781 1.74984,-2.16943 1.74277,-0.33163 2.39189,0.39509 3.01987,0.84668 0.0439,0.0425 1.12893,-3.38678 1.12893,-3.38678 0,0 -0.75497,-0.90312 -2.7447,-1.04423 -0.99487,-0.0706 -2.26461,0.55196 -3.06793,1.43874 -0.80331,0.88678 -1.30502,1.93495 -1.54655,2.50543 -0.0542,0.12789 -0.069,-0.68647 -0.0403,-1.12519 0.0413,-0.4927 0.13867,-0.68483 0.31536,-1.08946 0.17663,-0.40464 0.33365,-0.64078 0.76211,-1.30619 0.0141,-0.022 -3.18921,0 -3.18921,0 z"
       id="path4850-3"
       inkscape:connector-curvature="0"
       sodipodi:nodetypes="cccccccssscssc"
       inkscape:export-xdpi="90"
       inkscape:export-ydpi="90" />
    <path
       style="opacity:1;fill:#33326a;fill-opacity:1;fill-rule:evenodd;stroke:#000000;stroke-width:0.1206833;stroke-linecap:butt;stroke-linejoin:miter;stroke-miterlimit:4;stroke-dasharray:none;stroke-opacity:1"
       d="m 61.599125,13.94643 v 13.23329 h 3.612546 c -0.0012,-2.63969 -0.01098,-7.19165 -0.0037,-7.91907 0.160853,-1.38851 0.567079,-1.94117 1.490398,-2.27919 0.844721,-0.25179 1.482618,-0.27984 2.351492,9.9e-4 0.478676,0.18429 0.793784,0.28593 1.209302,0.74426 0.466646,0.51474 0.507121,0.98687 0.521241,1.53994 -0.01412,0.63257 -0.01412,7.85018 -0.01412,7.91307 0.05522,0 3.614845,0.004 3.614571,-0.001 -0.0024,-0.0473 -0.0024,-6.99211 -0.0027,-7.925 -1.79e-4,-0.70189 -0.245401,-2.26083 -0.875487,-3.30029 -0.630088,-1.03946 -1.020251,-1.32066 -1.970452,-1.90388 -0.965559,-0.45086 -1.550798,-0.5858 -3.166628,-0.52595 -0.799751,0.0296 -2.26461,0.55195 -3.067926,1.43874 -0.803317,0.88678 -1.305021,1.93496 -1.546557,2.50543 -0.05419,0.12789 -0.06903,-0.68646 -0.04031,-1.12519 0.04127,-0.4927 0.138665,-0.68482 0.315358,-1.08946 0.176632,-0.40464 0.333653,-0.64078 0.762115,-1.30619 0.01412,-0.022 -3.189213,0 -3.189213,0 z"
       id="path4850-4-7"
       inkscape:connector-curvature="0"
       sodipodi:nodetypes="ccccccsccssscssscsscc"
       inkscape:export-xdpi="90"
       inkscape:export-ydpi="90" />
    <path
       style="opacity:1;fill:#33326a;fill-opacity:1;fill-rule:evenodd;stroke:#000000;stroke-width:0.1206833;stroke-linecap:butt;stroke-linejoin:miter;stroke-miterlimit:4;stroke-dasharray:none;stroke-opacity:1"
       d="m 58.656923,27.05611 -0.0205,-13.23327 -3.612541,0.006 c 0.0053,2.6397 0.02213,7.19164 0.01601,7.91906 -0.158699,1.38876 -0.564067,1.94205 -1.486864,2.28151 -0.844329,0.2531 -1.48218,0.28213 -2.351489,0.002 -0.478962,-0.18355 -0.794227,-0.2847 -1.210455,-0.7424 -0.467444,-0.514 -0.50865,-0.98606 -0.523627,-1.53911 0.01319,-0.63259 0.0019,-7.8502 0.0018,-7.91309 -0.05522,5e-5 -3.614847,10e-4 -3.614564,0.007 0.0025,0.0474 0.01326,6.99211 0.01494,7.92499 0.0012,0.7019 0.248906,2.26045 0.880602,3.29893 0.631699,1.03848 1.022296,1.31907 1.973401,1.90082 0.966256,0.44937 1.551704,0.5834 3.167438,0.52104 0.799707,-0.0309 2.263752,-0.55547 3.065694,-1.44349 0.80194,-0.88803 1.302018,-1.93698 1.54267,-2.50783 0.05398,-0.12797 0.07008,0.68637 0.04206,1.12513 -0.0405,0.49277 -0.137605,0.68504 -0.31367,1.08994 -0.176003,0.40492 -0.332659,0.6413 -0.760089,1.30737 -0.0141,0.022 3.189211,-0.005 3.189211,-0.005 z"
       id="path4850-4-3-9"
       inkscape:connector-curvature="0"
       sodipodi:nodetypes="ccccccsccssscssscsscc"
       inkscape:export-xdpi="90"
       inkscape:export-ydpi="90" />
    <path
       style="fill:#fea815;fill-opacity:1;fill-rule:evenodd;stroke:none;stroke-width:0.31930786px;stroke-linecap:butt;stroke-linejoin:miter;stroke-opacity:1"
       d="M 148.47307,9.98087 C 148.2048,9.6849 147.97834,9.36674 147.41569,9.09588 146.85304,8.82501 146.16226,8.81217 145.288,8.8904 c -0.87427,0.0782 -1.75412,0.33214 -3.00892,0.93928 -1.25479,0.60714 -2.88307,1.93208 -4.00767,2.9352 -1.1246,1.00312 -2.07031,2.00249 -2.76587,2.99164 -0.69556,0.98916 -1.2501,1.93263 -1.46759,2.82231 -0.2175,0.88971 -0.14959,1.53756 0,2.3143 0.14958,0.77674 0.39661,1.60911 0.90313,2.25785 0.50652,0.64875 1.30676,1.09929 2.03207,1.4676 0.7253,0.3683 1.45159,0.6433 2.25785,0.7338 0.80626,0.0905 1.71958,-0.0888 2.48362,-0.22579 0.76405,-0.1369 1.49968,-0.29111 2.03431,-0.61866 0.53464,-0.32753 0.74921,-0.6897 1.12668,-1.13116 0.37747,-0.44146 0.79261,-1.11799 1.18537,-1.46761 0.39277,-0.34962 0.70674,-0.57152 1.07248,-0.67736 0.36574,-0.10584 0.73368,-0.1694 1.01603,0 0.28235,0.16942 0.36888,0.3706 0.45158,0.84671 0.0827,0.47609 -0.0181,1.36235 -0.28225,1.91916 -0.26417,0.55681 -0.61152,0.79168 -1.18536,1.29826 -0.57384,0.50658 -1.49237,1.16422 -2.31429,1.63694 -0.82193,0.47273 -1.62673,0.91958 -2.59653,1.18538 -0.9698,0.26579 -2.14143,0.31363 -3.16098,0.33867 -1.01956,0.025 -2.03558,1.3e-4 -2.9352,-0.16934 -0.89962,-0.16947 -1.63226,-0.37726 -2.4272,-0.79024 -0.79494,-0.41298 -1.66318,-1.04439 -2.25784,-1.69339 -0.59465,-0.649 -0.99148,-1.16168 -1.29826,-2.08851 -0.30678,-0.92682 -0.374,-2.17579 -0.28223,-3.38677 0.0917,-1.21098 0.38677,-2.64526 0.90313,-3.7819 0.51637,-1.13664 1.17342,-1.95432 1.94398,-2.9352 0.77056,-0.98086 1.96994,-2.12121 2.9255,-2.9352 0.95556,-0.81398 1.91481,-1.42929 2.86366,-1.91918 0.94884,-0.48987 1.75358,-0.96223 2.68461,-1.31334 0.93102,-0.35112 1.94447,-0.57741 2.90355,-0.77515 0.95909,-0.19774 1.85915,-0.23484 2.65297,-0.22579 0.79382,0.008 1.47138,0.0542 2.08851,0.22579 0.61713,0.17157 1.1657,0.37453 1.58051,0.73379 0.4148,0.35926 0.71839,0.83126 0.84669,1.29826 0.12829,0.46701 0.0932,1.01376 -0.0565,1.35472 -0.14963,0.34094 -0.36078,0.46349 -0.62091,0.6209 -0.26013,0.1574 -0.64074,0.26607 -0.90313,0.28223 -0.26239,0.0162 -0.39425,-0.0897 -0.60887,-0.24537 -0.21463,-0.15576 -0.32329,-0.43639 -0.59158,-0.73236 z"
       id="path4907-0"
       inkscape:connector-curvature="0"
       sodipodi:nodetypes="zzzzzzzzzzzzzzzzzzzzzzzzzzzzzzzzzzzzzzzzzzz"
       inkscape:export-xdpi="90"
       inkscape:export-ydpi="90" />
    <path
       style="opacity:1;fill:#fea815;fill-opacity:1;fill-rule:evenodd;stroke:none;stroke-width:0.31930786px;stroke-linecap:butt;stroke-linejoin:miter;stroke-opacity:1"
       d="m 156.33452,14.1196 c -0.57558,0.0448 -1.29921,0.18883 -1.86284,0.50827 -0.56363,0.31945 -1.00758,0.81326 -1.41132,1.35456 -0.40373,0.54131 -0.72896,1.2645 -0.95979,1.86284 -0.23082,0.59835 -0.45151,1.6932 -0.45151,1.6932 0,0 -1.11414,0.11429 -1.46745,0.33865 -0.35333,0.22432 -0.50357,0.48195 -0.62116,0.79016 -0.11755,0.3082 -0.21396,0.62211 -0.0611,0.97226 0.15285,0.35015 0.64217,0.75721 1.02091,0.83383 0.37874,0.0766 0.9598,-0.28189 0.9598,-0.28189 0,0 0.021,0.5453 0.0561,1.01592 0.0351,0.47062 -6.3e-4,1.29919 0.16964,1.80609 0.17014,0.50689 0.39376,0.81664 0.73341,1.18555 0.33965,0.36891 0.77442,0.71261 1.29844,0.9598 0.524,0.24718 1.21672,0.48039 1.80608,0.45151 0.58935,-0.0288 1.08158,-0.34655 1.58095,-0.5644 0.49937,-0.21783 0.98827,-0.40003 1.41069,-0.73403 0.42242,-0.334 0.76094,-0.79702 1.07267,-1.24169 0.31174,-0.44466 0.59293,-0.92706 0.79016,-1.4113 0.19725,-0.48426 0.44058,-1.0778 0.3954,-1.46745 -0.0451,-0.38965 -0.19279,-0.55569 -0.3954,-0.73403 -0.20259,-0.17835 -0.45912,-0.28706 -0.7334,-0.2819 -0.27429,0.005 -0.57245,0.12193 -0.79079,0.33864 -0.21835,0.21671 -0.19249,0.48647 -0.39477,0.90305 -0.20227,0.41657 -0.84692,1.58032 -0.84692,1.58032 0,0 -0.55916,0.87154 -0.95916,1.07267 -0.40002,0.20115 -0.89095,0.18934 -1.24232,0.11284 -0.35135,-0.0765 -0.59919,-0.24966 -0.79016,-0.45152 -0.19096,-0.20187 -0.26948,-0.37221 -0.33864,-0.67729 -0.0691,-0.30506 -0.0556,-0.79419 0.0199,-1.11945 0.0755,-0.32525 0.17247,-0.54252 0.37543,-0.80014 0.20297,-0.25761 0.33028,-0.33649 0.84629,-0.67727 0.51601,-0.3408 2.31436,-1.24169 2.31436,-1.24169 l 1.69382,-0.90305 c 0,0 0.68276,-0.40944 0.90305,-0.79016 0.22029,-0.38071 0.3385,-0.92641 0.2819,-1.41131 -0.0566,-0.48489 -0.36897,-0.96747 -0.62053,-1.35457 -0.25158,-0.38709 -0.46363,-0.6995 -0.84692,-0.95979 -0.38329,-0.26028 -0.91895,-0.39336 -1.41132,-0.50765 -0.49238,-0.11428 -0.94799,-0.21446 -1.52357,-0.16963 z m 0.62053,2.03185 c 0.35377,0.0939 0.73404,0.50827 0.73404,0.50827 0,0 0.50148,0.3939 0.5644,0.62115 0.0629,0.22726 0.0349,0.34377 -0.11284,0.5644 -0.14779,0.22064 -0.47279,0.35137 -0.84692,0.5644 -0.37413,0.21305 -0.86541,0.47381 -1.41132,0.67729 -0.54591,0.20347 -1.86222,0.50764 -1.86222,0.50764 0,0 -0.12815,-0.91538 -0.0121,-1.35456 0.11634,-0.43918 0.40709,-0.8535 0.68913,-1.18556 0.28204,-0.33206 0.56635,-0.62965 0.95917,-0.79016 0.39282,-0.16051 0.94466,-0.20679 1.29844,-0.11284 z"
       id="path4911-2"
       inkscape:connector-curvature="0"
       sodipodi:nodetypes="zzzzczzzzczzzzzzzzzzzzzzczzzzzzzcczzzzzzzczzzzczzzz"
       inkscape:export-xdpi="90"
       inkscape:export-ydpi="90" />
    <path
       style="fill:#fea815;fill-opacity:1;fill-rule:evenodd;stroke:none;stroke-width:0.31930786px;stroke-linecap:butt;stroke-linejoin:miter;stroke-opacity:1"
       d="m 161.41435,25.57816 c 0.0666,-0.27772 0.18837,-2.28121 0.31046,-3.44321 0.12208,-1.162 0.32307,-2.48774 0.42334,-3.52789 0.10029,-1.04014 0.19756,-2.70942 0.19756,-2.70942 l 0.3669,-1.32648 0.56446,-0.39513 0.98781,0.11284 0.59268,0.64913 0.11284,0.98782 0.0847,1.74982 0.87492,-1.21359 c 0,0 0.67585,-0.80281 1.07248,-1.10069 0.39662,-0.29788 0.86767,-0.55976 1.27003,-0.67736 0.40236,-0.11767 0.70799,-0.16395 1.07249,-0.0847 0.3645,0.0793 0.73424,0.2975 1.01603,0.56446 0.2818,0.26696 0.45691,0.5326 0.62091,0.9878 0.16399,0.45522 0.18405,1.1562 0.22578,1.72162 0.0418,0.56542 0.0284,1.11944 0.0282,1.66516 -1.5e-4,0.54573 -0.051,1.1328 -0.0282,1.60872 0.0228,0.47592 0.0933,0.87496 0.14112,1.24181 0.0478,0.36686 0.0147,0.70816 0.14111,0.95959 0.12636,0.25142 0.30428,0.40227 0.50802,0.50802 0.20374,0.10572 0.37573,0.17056 0.64913,0.11284 0.2734,-0.0577 0.54304,-0.2827 0.84669,-0.56446 0.30365,-0.28177 0.62853,-0.73762 0.90315,-1.15715 0.27461,-0.41954 0.55884,-0.87907 0.73379,-1.35472 0.17494,-0.47563 0.28575,-1.05777 0.31045,-1.46759 0.0247,-0.40983 -0.0847,-0.95959 -0.0847,-0.95959 0,0 -0.89363,-0.065 -1.29826,-0.11284 -0.40463,-0.0479 -0.87397,0.0403 -1.12892,-0.16934 -0.25494,-0.2097 -0.2483,-0.49128 -0.28223,-0.79025 -0.0339,-0.29897 -0.0545,-0.75391 0.11284,-0.95959 0.16736,-0.20566 0.16489,-0.12813 0.59269,-0.19755 0.4278,-0.0694 1.97562,0 1.97562,0 0,0 0.34355,-0.80426 0.53623,-1.24181 0.19269,-0.43755 0.37372,-0.95797 0.62092,-1.38294 0.24719,-0.42496 0.51896,-0.82665 0.74791,-1.15714 0.22895,-0.33051 0.39532,-0.60517 0.63501,-0.81848 0.23969,-0.21331 0.55367,-0.38011 0.8467,-0.42334 0.29303,-0.0432 0.56841,0.0189 0.81846,0.14111 0.25006,0.12211 0.49684,0.2447 0.62092,0.56446 0.12407,0.31978 0.0366,0.78806 -0.11284,1.21359 -0.14944,0.42555 -0.67163,0.93339 -0.81846,1.24182 -0.14684,0.30843 -0.16934,0.53625 -0.16934,0.53625 0,0 0.0571,0.22821 0.22578,0.33867 0.16868,0.11043 0.34994,0.16024 0.79025,0.14112 0.44031,-0.0192 1.19006,-0.32459 1.77805,-0.47979 0.58799,-0.1552 1.19937,-0.31551 1.74983,-0.45158 0.55047,-0.13607 1.09562,-0.35345 1.55227,-0.3669 0.45665,-0.0134 0.85056,0.0215 1.12893,0.19756 0.27837,0.17604 0.36776,0.44222 0.47979,0.67736 0.11199,0.23514 0.14481,0.4088 0.19756,0.70558 0.0527,0.29677 0.0821,0.83236 0.0847,1.07247 -0.0124,0.12787 0.11284,0.56446 0.11284,0.56446 0,0 0.58546,-0.12459 0.84669,-0.28223 0.26123,-0.15764 0.42916,-0.47422 0.67734,-0.64913 0.24819,-0.17489 0.49408,-0.26652 0.79025,-0.39512 0.29617,-0.1286 0.65611,-0.35338 0.98782,-0.3669 0.33171,-0.0135 0.60615,0.11332 0.90313,0.25402 0.29698,0.14069 0.63692,0.3461 0.84669,0.59267 0.20977,0.24658 0.24482,0.54503 0.39513,0.81848 0.15031,0.27343 0.39333,0.4975 0.50802,0.81847 0.11464,0.32096 0.17933,0.76792 0.14111,1.07248 -0.0383,0.30454 -0.084,0.49849 -0.28223,0.70557 -0.19822,0.20707 -0.56568,0.40558 -0.87492,0.39512 -0.30924,-0.0109 -0.51344,-0.21062 -0.79024,-0.42335 -0.2768,-0.21273 -0.61491,-0.66444 -0.81848,-0.87491 -0.20357,-0.21046 -0.19445,-0.31648 -0.39511,-0.39512 -0.20066,-0.0787 -0.50471,-0.0611 -0.73381,0.0282 -0.22909,0.0892 -0.32472,0.22709 -0.56446,0.47979 -0.23973,0.2527 -0.59373,0.76588 -0.81847,1.07247 -0.22474,0.30661 -0.40592,0.50388 -0.53623,0.76203 -0.13032,0.25814 -0.16075,0.39146 -0.25402,0.76202 -0.0933,0.37056 -0.20271,0.92068 -0.254,1.46761 -0.0513,0.54691 -0.0187,1.25592 -0.0282,1.80628 -0.01,0.55034 0.10379,1.08447 -0.0282,1.49582 -0.13203,0.41135 -0.33212,0.67111 -0.62091,0.90313 -0.2888,0.23204 -0.71667,0.41645 -1.04425,0.42336 -0.32759,0.007 -0.55208,-0.14765 -0.79025,-0.28223 -0.23817,-0.1346 -0.39164,-0.13566 -0.6209,-0.50802 -0.22927,-0.37237 -0.34138,-1.16136 -0.39513,-1.77806 -0.0537,-0.61671 -0.0437,-1.27152 0.0847,-1.89095 0.12838,-0.61942 0.47065,-1.1945 0.67734,-1.77805 0.2067,-0.58357 0.40356,-1.24683 0.56446,-1.72161 0.16091,-0.47478 0.30881,-0.73102 0.39513,-1.12892 0.0863,-0.39792 0.17288,-0.90893 0.11284,-1.24182 -0.06,-0.33289 -0.16146,-0.57366 -0.33867,-0.70557 -0.17721,-0.13194 -0.20293,-0.0845 -0.53623,-0.0847 -0.33331,-1.7e-4 -0.85807,0.0959 -1.43938,0.22578 -0.58131,0.1298 -1.41773,0.46146 -2.03207,0.59268 -0.61433,0.13122 -1.13367,0.15001 -1.63694,0.22578 -0.50328,0.0758 -1.38293,0.22579 -1.38293,0.22579 0,0 -0.10221,1.02942 -0.11284,1.58049 -0.0109,0.55108 0.0251,1.01122 0.0565,1.72161 0.0314,0.7104 0.0124,2.00279 0.14112,2.54008 0.12864,0.5373 0.14642,0.47664 0.31045,0.70558 0.16402,0.22893 0.4181,0.51449 0.67735,0.62091 0.25926,0.10645 0.45628,0.0186 0.76202,0.0282 0.30574,0.01 0.78082,-0.0757 1.07248,0.0282 0.29165,0.10391 0.46455,0.2698 0.62091,0.47979 0.15637,0.21 0.2688,0.43184 0.28223,0.7338 0.0134,0.30197 -0.10065,0.69899 -0.28223,0.98781 -0.18156,0.28882 -0.41115,0.50812 -0.76203,0.67736 -0.35087,0.16923 -0.81105,0.22688 -1.29826,0.22578 -0.48721,-0.001 -1.07059,-0.0596 -1.58049,-0.28223 -0.5099,-0.22267 -1.05988,-0.55192 -1.38293,-1.04426 -0.32306,-0.49234 -0.37118,-1.19486 -0.50802,-1.73571 -0.13684,-0.54087 -0.19301,-1.18002 -0.21167,-1.58049 -0.0187,-0.40049 0.0424,-0.77614 0.0424,-0.77614 0,0 -0.70097,1.19178 -1.04426,1.66516 -0.34328,0.47338 -0.64296,0.88758 -0.9878,1.18536 -0.34484,0.29779 -0.57003,0.48268 -1.01604,0.62092 -0.44601,0.13824 -1.18112,0.17381 -1.60872,0.0847 -0.42759,-0.0892 -0.65912,-0.28041 -0.90313,-0.45157 -0.24401,-0.17116 -0.32198,-0.21659 -0.56446,-0.53623 -0.24248,-0.31965 -0.6069,-0.93572 -0.76203,-1.43938 -0.15513,-0.50367 -0.13673,-0.93542 -0.16933,-1.52405 -0.0326,-0.58865 0.006,-1.477 0,-2.00384 -0.006,-0.52685 0.01,-0.8271 -0.0282,-1.15715 -0.0379,-0.33005 -0.0748,-0.58113 -0.16934,-0.81847 -0.0946,-0.23734 -0.21974,-0.46911 -0.3669,-0.59269 -0.14717,-0.12358 -0.24309,-0.15119 -0.42335,-0.16933 -0.18026,-0.0181 -0.42606,0.007 -0.6209,0.11284 -0.19485,0.1056 -0.27105,0.23162 -0.4798,0.50802 -0.20876,0.27638 -0.47962,0.78072 -0.70558,1.18536 -0.22595,0.40464 -0.45705,0.7755 -0.64913,1.24182 -0.19208,0.46632 -0.31057,1.02536 -0.47979,1.55226 -0.16922,0.52691 -0.37497,1.03929 -0.53624,1.60872 -0.16127,0.56944 -0.32914,1.32525 -0.42335,1.80628 -0.0942,0.48102 -3.1e-4,0.84159 -0.16933,1.07248 -0.16902,0.23089 -0.31579,0.24015 -0.56447,0.28223 -0.24868,0.0421 -0.62869,-0.008 -0.87492,-0.11284 -0.24623,-0.10451 -0.38955,-0.28863 -0.52918,-0.44981 -0.13963,-0.16117 -0.27906,-0.31118 -0.28223,-0.47979 -0.004,-0.16861 0.0109,-0.17562 0.0776,-0.45335 z"
       id="path4916-3"
       inkscape:connector-curvature="0"
       sodipodi:nodetypes="zzzcccccccczzzzzzzzzzzzzzzzczzzzzczzzzzzzzzczzzzzzzzcczzzzzzzzzzzzzzzzzzzzzzzzzzzzzzzzzzzzzczzzzzzzzzzzzzzzzczzzzzzzzzzzzzzzzzzzzzzzzzz"
       inkscape:export-xdpi="90"
       inkscape:export-ydpi="90" />
    <path
       style="opacity:1;fill:#fea815;fill-opacity:1;fill-rule:evenodd;stroke:none;stroke-width:0.31930786px;stroke-linecap:butt;stroke-linejoin:miter;stroke-opacity:1"
       d="m 199.7012,14.08819 c -0.57558,0.0448 -1.29922,0.18883 -1.86283,0.50828 -0.56363,0.31943 -1.00759,0.81325 -1.41132,1.35456 -0.40374,0.5413 -0.72898,1.26449 -0.9598,1.86283 -0.23082,0.59835 -0.45152,1.69321 -0.45152,1.69321 0,0 -1.11413,0.11429 -1.46744,0.33864 -0.35332,0.22432 -0.50356,0.48196 -0.62116,0.79016 -0.11754,0.30821 -0.21395,0.62212 -0.0611,0.97227 0.15284,0.35015 0.64217,0.75719 1.02091,0.83382 0.37874,0.0766 0.95979,-0.2819 0.95979,-0.2819 0,0 0.021,0.54532 0.0561,1.01593 0.0351,0.47061 -6.4e-4,1.29919 0.16963,1.80608 0.17013,0.5069 0.39376,0.81665 0.73341,1.18556 0.33965,0.36892 0.77442,0.71261 1.29844,0.95979 0.52401,0.24719 1.21673,0.48041 1.80607,0.45153 0.58936,-0.0288 1.08159,-0.34657 1.58095,-0.5644 0.49938,-0.21785 0.98828,-0.40003 1.4107,-0.73405 0.42242,-0.334 0.76094,-0.79701 1.07268,-1.24167 0.31173,-0.44467 0.59291,-0.92708 0.79016,-1.41132 0.19724,-0.48424 0.44058,-1.0778 0.39539,-1.46745 -0.0451,-0.38963 -0.19279,-0.55568 -0.39539,-0.73403 -0.2026,-0.17834 -0.45913,-0.28706 -0.73342,-0.28188 -0.27427,0.005 -0.57243,0.12193 -0.79077,0.33864 -0.21836,0.21671 -0.19249,0.48646 -0.39478,0.90304 -0.20228,0.41657 -0.84691,1.58032 -0.84691,1.58032 0,0 -0.55916,0.87154 -0.95917,1.07268 -0.40001,0.20113 -0.89095,0.18934 -1.24231,0.11284 -0.35136,-0.0764 -0.59919,-0.24966 -0.79016,-0.45153 -0.19097,-0.20186 -0.26949,-0.37221 -0.33864,-0.67728 -0.0691,-0.30507 -0.0556,-0.79419 0.0199,-1.11945 0.0755,-0.32525 0.17248,-0.54252 0.37545,-0.80014 0.20296,-0.25761 0.33027,-0.33649 0.84629,-0.67727 0.51601,-0.3408 2.31436,-1.24169 2.31436,-1.24169 l 1.69382,-0.90305 c 0,0 0.68275,-0.40944 0.90304,-0.79016 0.22029,-0.38071 0.3385,-0.92642 0.28189,-1.41131 -0.0566,-0.48489 -0.36896,-0.96747 -0.62053,-1.35457 -0.25156,-0.38709 -0.46362,-0.69951 -0.84691,-0.9598 -0.3833,-0.26027 -0.91894,-0.39335 -1.41131,-0.50764 -0.49238,-0.11429 -0.948,-0.21446 -1.52358,-0.16963 z m 0.62053,2.03184 c 0.35378,0.0939 0.73403,0.50827 0.73403,0.50827 0,0 0.50149,0.3939 0.56441,0.62116 0.0629,0.22726 0.0349,0.34377 -0.11284,0.5644 -0.14778,0.22064 -0.47279,0.35137 -0.84691,0.56441 -0.37413,0.21303 -0.8654,0.47379 -1.41131,0.67728 -0.54592,0.20348 -1.86222,0.50765 -1.86222,0.50765 0,0 -0.12815,-0.91539 -0.0121,-1.35456 0.11634,-0.43918 0.40709,-0.85351 0.68914,-1.18557 0.28204,-0.33205 0.56635,-0.62965 0.95917,-0.79015 0.39281,-0.16051 0.94466,-0.20679 1.29843,-0.11284 z"
       id="path4911-0-9"
       inkscape:connector-curvature="0"
       sodipodi:nodetypes="zzzzczzzzczzzzzzzzzzzzzzczzzzzzzcczzzzzzzczzzzczzzz"
       inkscape:export-xdpi="90"
       inkscape:export-ydpi="90" />
    <g
       aria-label="Ashford"
       transform="matrix(1.1739081,0,0,1.2406812,-9.9562847,-25.55815)"
       style="font-style:normal;font-variant:normal;font-weight:normal;font-stretch:normal;font-size:10.29459667px;line-height:125%;font-family:'Apple Braille';-inkscape-font-specification:'Apple Braille';letter-spacing:0px;word-spacing:0px;fill:#ffffff;fill-opacity:1;stroke:none;stroke-width:0.25736493px;stroke-linecap:butt;stroke-linejoin:miter;stroke-opacity:1"
       id="text3819-9"
       inkscape:export-xdpi="90"
       inkscape:export-ydpi="90">
      <path
         d="m 138.47311,55.669334 0.97296,-2.741041 h 0.0209 l 0.94158,2.741041 z m 0.15693,-4.582351 -2.82474,7.46986 h 1.65299 l 0.58588,-1.663456 h 2.79335 l 0.56494,1.663456 h 1.70531 l -2.79335,-7.46986 z"
         style="font-style:normal;font-variant:normal;font-weight:bold;font-stretch:normal;font-family:'.Helvetica Neue DeskInterface';-inkscape-font-specification:'.Helvetica Neue DeskInterface Bold';fill:#ffffff;fill-opacity:1;stroke-width:0.25736493px"
         id="path4892-7"
         inkscape:connector-curvature="0" />
      <path
         d="m 144.7418,56.799229 h -1.41237 q 0.0209,0.544023 0.24063,0.910193 0.23016,0.355707 0.57541,0.575409 0.3557,0.219702 0.80557,0.31386 0.44987,0.09416 0.92066,0.09416 0.46032,0 0.89973,-0.09416 0.44986,-0.0837 0.79511,-0.303398 0.34524,-0.219702 0.55448,-0.575409 0.2197,-0.36617 0.2197,-0.899731 0,-0.376632 -0.14646,-0.62772 -0.14647,-0.261549 -0.3871,-0.428941 -0.24062,-0.177854 -0.55448,-0.282474 -0.3034,-0.10462 -0.62772,-0.177854 -0.31386,-0.07323 -0.61726,-0.136005 -0.3034,-0.06277 -0.54402,-0.136006 -0.23017,-0.0837 -0.37663,-0.20924 -0.14647,-0.125544 -0.14647,-0.324322 0,-0.167392 0.0837,-0.261549 0.0837,-0.10462 0.19878,-0.15693 0.12555,-0.05231 0.27201,-0.06277 0.14647,-0.02092 0.27202,-0.02092 0.39755,0 0.69049,0.15693 0.29293,0.146467 0.32432,0.575409 h 1.41237 q -0.0419,-0.502175 -0.26155,-0.826497 -0.20924,-0.334784 -0.53356,-0.533561 -0.32433,-0.198778 -0.74281,-0.282474 -0.40801,-0.0837 -0.84742,-0.0837 -0.4394,0 -0.85788,0.0837 -0.41848,0.07323 -0.75326,0.272012 -0.33479,0.188315 -0.54403,0.523099 -0.19877,0.334784 -0.19877,0.857883 0,0.355708 0.14646,0.606795 0.14647,0.240626 0.3871,0.408018 0.24062,0.15693 0.54402,0.26155 0.31386,0.09416 0.63818,0.167391 0.79511,0.167392 1.23452,0.334784 0.44986,0.167392 0.44986,0.502175 0,0.198778 -0.0942,0.334784 -0.0942,0.125544 -0.24062,0.20924 -0.13601,0.07323 -0.31386,0.115082 -0.16739,0.03139 -0.32432,0.03139 -0.2197,0 -0.42894,-0.05231 -0.19878,-0.05231 -0.35571,-0.15693 -0.15693,-0.115082 -0.26155,-0.282474 -0.0942,-0.177854 -0.0942,-0.418479 z"
         style="font-style:normal;font-variant:normal;font-weight:bold;font-stretch:normal;font-family:'.Helvetica Neue DeskInterface';-inkscape-font-specification:'.Helvetica Neue DeskInterface Bold';fill:#ffffff;fill-opacity:1;stroke-width:0.25736493px"
         id="path4894-0"
         inkscape:connector-curvature="0" />
      <path
         d="m 149.20073,51.086983 v 7.46986 h 1.4856 v -2.835199 q 0,-0.826497 0.27202,-1.182205 0.27201,-0.366169 0.8788,-0.366169 0.53356,0 0.7428,0.334783 0.20924,0.324322 0.20924,0.993889 v 3.054901 h 1.48561 V 55.22993 q 0,-0.502175 -0.0942,-0.910193 -0.0837,-0.418479 -0.3034,-0.700953 -0.2197,-0.292935 -0.60679,-0.449865 -0.37664,-0.167392 -0.97297,-0.167392 -0.41848,0 -0.85788,0.219702 -0.43941,0.209239 -0.72188,0.680029 h -0.0314 v -2.814275 z"
         style="font-style:normal;font-variant:normal;font-weight:bold;font-stretch:normal;font-family:'.Helvetica Neue DeskInterface';-inkscape-font-specification:'.Helvetica Neue DeskInterface Bold';fill:#ffffff;fill-opacity:1;stroke-width:0.25736493px"
         id="path4896-3"
         inkscape:connector-curvature="0" />
      <path
         d="m 155.738,54.141884 v 4.414959 h 1.48561 v -4.414959 h 1.02527 v -0.993889 h -1.02527 v -0.324322 q 0,-0.334784 0.12554,-0.470789 0.13601,-0.146468 0.4394,-0.146468 0.28248,0 0.54403,0.03139 v -1.108971 q -0.18832,-0.01046 -0.3871,-0.02092 -0.19877,-0.02092 -0.39755,-0.02092 -0.91019,0 -1.36006,0.460328 -0.44987,0.460327 -0.44987,1.182204 v 0.41848 h -0.88926 v 0.993889 z"
         style="font-style:normal;font-variant:normal;font-weight:bold;font-stretch:normal;font-family:'.Helvetica Neue DeskInterface';-inkscape-font-specification:'.Helvetica Neue DeskInterface Bold';fill:#ffffff;fill-opacity:1;stroke-width:0.25736493px"
         id="path4898-9"
         inkscape:connector-curvature="0" />
      <path
         d="m 160.21034,55.85765 q 0,-0.324322 0.0628,-0.638182 0.0628,-0.313859 0.20924,-0.554485 0.15693,-0.240626 0.40802,-0.387093 0.25109,-0.15693 0.62772,-0.15693 0.37663,0 0.62772,0.15693 0.26155,0.146467 0.40802,0.387093 0.15693,0.240626 0.2197,0.554485 0.0628,0.31386 0.0628,0.638182 0,0.324321 -0.0628,0.638181 -0.0628,0.303398 -0.2197,0.554485 -0.14647,0.240626 -0.40802,0.387094 -0.25109,0.146468 -0.62772,0.146468 -0.37663,0 -0.62772,-0.146468 -0.25109,-0.146468 -0.40802,-0.387094 -0.14647,-0.251087 -0.20924,-0.554485 -0.0628,-0.31386 -0.0628,-0.638181 z m -1.4856,0 q 0,0.648643 0.19878,1.171742 0.19877,0.5231 0.56494,0.899731 0.36617,0.36617 0.87881,0.564948 0.51264,0.198778 1.15082,0.198778 0.63818,0 1.15082,-0.198778 0.5231,-0.198778 0.88927,-0.564948 0.36617,-0.376631 0.56494,-0.899731 0.19878,-0.523099 0.19878,-1.171742 0,-0.648644 -0.19878,-1.171743 -0.19877,-0.533561 -0.56494,-0.899731 -0.36617,-0.376632 -0.88927,-0.575409 -0.51264,-0.20924 -1.15082,-0.20924 -0.63818,0 -1.15082,0.20924 -0.51264,0.198777 -0.87881,0.575409 -0.36617,0.36617 -0.56494,0.899731 -0.19878,0.523099 -0.19878,1.171743 z"
         style="font-style:normal;font-variant:normal;font-weight:bold;font-stretch:normal;font-family:'.Helvetica Neue DeskInterface';-inkscape-font-specification:'.Helvetica Neue DeskInterface Bold';fill:#ffffff;fill-opacity:1;stroke-width:0.25736493px"
         id="path4900-8"
         inkscape:connector-curvature="0" />
      <path
         d="m 165.28604,53.147995 v 5.408848 h 1.4856 v -2.437644 q 0,-0.366169 0.0732,-0.680029 0.0732,-0.313859 0.24062,-0.544023 0.17786,-0.240626 0.46033,-0.376632 0.28247,-0.136006 0.69049,-0.136006 0.13601,0 0.28247,0.02092 0.14647,0.01046 0.25109,0.03139 v -1.380982 q -0.17785,-0.05231 -0.32432,-0.05231 -0.28247,0 -0.54402,0.0837 -0.26155,0.0837 -0.49172,0.240626 -0.23016,0.146467 -0.40801,0.366169 -0.17786,0.20924 -0.28248,0.460328 h -0.0209 v -1.004351 z"
         style="font-style:normal;font-variant:normal;font-weight:bold;font-stretch:normal;font-family:'.Helvetica Neue DeskInterface';-inkscape-font-specification:'.Helvetica Neue DeskInterface Bold';fill:#ffffff;fill-opacity:1;stroke-width:0.25736493px"
         id="path4902-6"
         inkscape:connector-curvature="0" />
      <path
         d="m 173.01622,55.836726 q 0,0.334783 -0.0628,0.648643 -0.0628,0.31386 -0.20924,0.564947 -0.14647,0.240626 -0.39756,0.387094 -0.24062,0.146468 -0.60679,0.146468 -0.34525,0 -0.59633,-0.146468 -0.24063,-0.15693 -0.40802,-0.397556 -0.15693,-0.251087 -0.23017,-0.564947 -0.0732,-0.31386 -0.0732,-0.627719 0,-0.334784 0.0628,-0.638182 0.0732,-0.313859 0.2197,-0.554485 0.15693,-0.240626 0.40802,-0.387093 0.25109,-0.146468 0.61726,-0.146468 0.36617,0 0.60679,0.146468 0.24063,0.146467 0.3871,0.387093 0.15693,0.230164 0.2197,0.544023 0.0628,0.303398 0.0628,0.638182 z m 0.0209,2.029626 v 0.690491 h 1.41236 v -7.46986 h -1.4856 V 53.8071 h -0.0209 q -0.25109,-0.397556 -0.69049,-0.596333 -0.42894,-0.20924 -0.9102,-0.20924 -0.59633,0 -1.04619,0.240626 -0.44987,0.230163 -0.75327,0.617257 -0.29293,0.387094 -0.44986,0.899731 -0.14647,0.502175 -0.14647,1.046199 0,0.564947 0.14647,1.088047 0.15693,0.523099 0.44986,0.931117 0.3034,0.397555 0.76373,0.638181 0.46032,0.230164 1.06712,0.230164 0.53356,0 0.95204,-0.188316 0.42894,-0.198778 0.69049,-0.638181 z"
         style="font-style:normal;font-variant:normal;font-weight:bold;font-stretch:normal;font-family:'.Helvetica Neue DeskInterface';-inkscape-font-specification:'.Helvetica Neue DeskInterface Bold';fill:#ffffff;fill-opacity:1;stroke-width:0.25736493px"
         id="path4904-5"
         inkscape:connector-curvature="0" />
    </g>
    <path
       style="fill:#33326a;fill-rule:evenodd;stroke:none;stroke-width:0.26458332px;stroke-linecap:butt;stroke-linejoin:miter;stroke-opacity:1;fill-opacity:1"
       d="M 7.8176336,10.499623 H 11.960311 L 16.102989,22.3263 h 0.03341 l 4.176086,-11.793268 h 4.209495 l -6.214016,16.737754 -4.543583,-0.06682 z"
       id="path1153"
       inkscape:connector-curvature="0" />
    <path
       style="fill:#33326a;fill-rule:evenodd;stroke:none;stroke-width:0.99999994px;stroke-linecap:butt;stroke-linejoin:miter;stroke-opacity:1;fill-opacity:1"
       d="M 115.91406 51.173828 C 114.11293 51.130337 111.41966 51.383221 109.47461 51.804688 C 107.52956 52.226154 105.94691 52.831051 104.29883 53.572266 C 102.65075 54.31348 101.10361 55.064396 99.626953 56.224609 C 98.150295 57.384822 96.673451 59.067298 95.585938 60.517578 C 94.498424 61.967858 93.755942 63.330098 93.060547 64.810547 C 92.365152 66.290995 91.862154 67.585923 91.417969 69.357422 C 90.973784 71.12892 90.675981 73.476259 90.535156 75.417969 C 90.394331 77.359678 90.365569 79.134029 90.535156 80.972656 C 90.704736 82.811283 91.024591 84.5409 91.544922 86.402344 C 92.065253 88.263788 92.766061 90.392339 93.691406 92.085938 C 94.616752 93.779536 95.739928 95.214437 96.974609 96.503906 C 98.20929 97.793375 99.456124 98.780942 101.01562 99.787109 C 102.57513 100.79328 104.53571 101.79137 106.31836 102.43945 C 108.10101 103.08754 109.79649 103.50796 111.62109 103.70117 C 113.44569 103.89438 115.23876 103.719 117.17773 103.57617 C 119.1167 103.43332 121.52861 103.25457 123.23828 102.81836 C 124.94795 102.38215 125.88377 102.01772 127.40625 101.17578 C 128.92873 100.33384 130.81322 98.918676 132.20312 97.640625 C 133.59303 96.362574 134.71196 95.144661 135.73828 93.599609 C 136.7646 92.054557 137.60369 90.264462 138.26367 88.423828 C 138.92366 86.583194 139.38591 84.518691 139.6543 82.615234 C 139.92272 80.711777 139.94291 78.998833 139.90625 77.058594 C 139.86966 75.118354 139.78882 72.924616 139.40039 70.998047 C 139.01196 69.071478 138.28249 67.12399 137.63281 65.568359 C 136.98313 64.012729 136.46932 63.012451 135.61328 61.654297 C 134.75724 60.296143 133.57364 58.743508 132.4082 57.628906 C 131.24277 56.514305 130.04277 55.677675 128.79492 54.962891 C 127.54707 54.248106 126.43751 53.732878 125.00586 53.195312 C 123.57421 52.657747 121.72929 52.134905 120.20898 51.804688 C 118.68868 51.474455 117.71519 51.21733 115.91406 51.173828 z M 116.05078 61.636719 C 116.60762 61.640966 117.15532 61.68606 117.67773 61.802734 C 118.72256 62.036067 119.66588 62.524651 120.53516 63.052734 C 121.40444 63.580818 122.13595 64.196498 122.85742 64.927734 C 123.57889 65.658971 124.22037 66.32689 124.82227 67.427734 C 125.42416 68.528578 125.92434 70.158066 126.25 71.535156 C 126.57566 72.912246 126.69222 74.211222 126.78516 75.642578 C 126.87809 77.073934 126.90051 78.568116 126.78516 80.105469 C 126.66979 81.642822 126.52068 83.291062 126.07227 84.837891 C 125.62385 86.384719 124.91982 88.159465 124.10742 89.302734 C 123.29502 90.446004 122.55462 91.039681 121.51758 91.712891 C 120.48053 92.3861 119.1533 92.92153 117.94727 93.230469 C 116.74123 93.539407 115.51996 93.656111 114.375 93.587891 C 113.23004 93.519681 112.21237 93.260456 111.16016 92.873047 C 110.10795 92.485638 109.02093 91.994279 108.125 91.267578 C 107.22907 90.540877 106.45076 89.48201 105.89258 88.587891 C 105.3344 87.693772 105.06929 86.981522 104.73242 85.998047 C 104.39554 85.014572 104.13206 83.947334 103.92773 82.695312 C 103.72345 81.443291 103.60477 79.944257 103.57227 78.498047 C 103.53976 77.051837 103.59961 75.49622 103.75 74.035156 C 103.90038 72.574093 104.06898 70.989622 104.46484 69.748047 C 104.86071 68.506472 105.38734 67.517805 105.98242 66.623047 C 106.57751 65.728289 107.10267 65.126294 107.94727 64.392578 C 108.79186 63.658862 109.97496 62.781498 111.07227 62.337891 C 112.16958 61.894272 113.26739 61.801672 114.375 61.712891 C 114.9288 61.6685 115.49394 61.632472 116.05078 61.636719 z "
       transform="scale(0.26458333)"
       id="path1155" />
  </g>
</svg>
