<?xml version="1.0" encoding="UTF-8" standalone="no"?>
<!DOCTYPE svg PUBLIC "-//W3C//DTD SVG 1.1//EN"
 "http://www.w3.org/Graphics/SVG/1.1/DTD/svg11.dtd">
<!-- Generated by graphviz version 2.40.1 (20161225.0304)
 -->
<!-- Title: G Pages: 1 -->
<svg width="256pt" height="514pt"
 viewBox="0.00 0.00 256.00 514.00" xmlns="http://www.w3.org/2000/svg" xmlns:xlink="http://www.w3.org/1999/xlink">
<g id="graph0" class="graph" transform="scale(1 1) rotate(0) translate(4 510)">
<title>G</title>
<polygon fill="#ffffff" stroke="transparent" points="-4,4 -4,-510 252,-510 252,4 -4,4"/>
<!-- A0 -->
<g id="node1" class="node">
<title>A0</title>
<polygon fill="none" stroke="#000000" points=".5,-344 .5,-376 77.5,-376 77.5,-344 .5,-344"/>
<text text-anchor="start" x="20.9425" y="-357" font-family="Helvetica,sans-Serif" font-size="10.00" fill="#000000">Classe1</text>
<polygon fill="none" stroke="#000000" points=".5,-312 .5,-344 77.5,-344 77.5,-312 .5,-312"/>
<text text-anchor="start" x="10.107" y="-325" font-family="Helvetica,sans-Serif" font-size="10.00" fill="#000000">attribut:string</text>
<polygon fill="none" stroke="#000000" points=".5,-280 .5,-312 77.5,-312 77.5,-280 .5,-280"/>
<text text-anchor="start" x="12.331" y="-293" font-family="Helvetica,sans-Serif" font-size="10.00" fill="#000000">method():int</text>
</g>
<!-- A1 -->
<g id="node2" class="node">
<title>A1</title>
<polygon fill="none" stroke="#000000" points="70.6151,-68 6.3849,-68 6.3849,-32 70.6151,-32 70.6151,-68"/>
<text text-anchor="middle" x="38.5" y="-47" font-family="Helvetica,sans-Serif" font-size="10.00" fill="#000000">Classe2</text>
</g>
<!-- A0&#45;&gt;A1 -->
<g id="edge1" class="edge">
<title>A0&#45;&gt;A1</title>
<path fill="none" stroke="#000000" d="M38.5,-279.8935C38.5,-221.7912 38.5,-125.9579 38.5,-78.4802"/>
<polygon fill="#000000" stroke="#000000" points="38.5,-68.3063 43.0001,-78.3062 38.5,-73.3063 38.5001,-78.3063 38.5001,-78.3063 38.5001,-78.3063 38.5,-73.3063 34.0001,-78.3063 38.5,-68.3063 38.5,-68.3063"/>
</g>
<!-- A2 -->
<g id="node3" class="node">
<title>A2</title>
<polygon fill="none" stroke="#000000" points="95.5,-474 95.5,-506 248.5,-506 248.5,-474 95.5,-474"/>
<text text-anchor="start" x="163.1065" y="-487" font-family="Helvetica,sans-Serif" font-size="10.00" fill="#000000">App</text>
<polygon fill="none" stroke="#000000" points="95.5,-454 95.5,-474 248.5,-474 248.5,-454 95.5,-454"/>
<polygon fill="none" stroke="#000000" points="95.5,-422 95.5,-454 248.5,-454 248.5,-422 95.5,-422"/>
<text text-anchor="start" x="154.224" y="-435" font-family="Helvetica,sans-Serif" font-size="10.00" fill="#000000">render()</text>
<polygon fill="none" stroke="#000000" points="95.5,-366 95.5,-422 248.5,-422 248.5,-366 95.5,-366"/>
<text text-anchor="start" x="146.72" y="-403" font-family="Helvetica,sans-Serif" font-size="10.00" fill="#000000">onSignUp()</text>
<text text-anchor="start" x="148.94" y="-391" font-family="Helvetica,sans-Serif" font-size="10.00" fill="#000000">onSignIn()</text>
<text text-anchor="start" x="145.0505" y="-379" font-family="Helvetica,sans-Serif" font-size="10.00" fill="#000000">onSignOut()</text>
<polygon fill="none" stroke="#000000" points="95.5,-226 95.5,-366 248.5,-366 248.5,-226 95.5,-226"/>
<text text-anchor="start" x="131.4375" y="-347" font-family="Helvetica,sans-Serif" font-size="10.00" fill="#000000">onShowBoolking()</text>
<text text-anchor="start" x="132.272" y="-335" font-family="Helvetica,sans-Serif" font-size="10.00" fill="#000000">onCloseBooking()</text>
<text text-anchor="start" x="132.8265" y="-323" font-family="Helvetica,sans-Serif" font-size="10.00" fill="#000000">onMakeBooking()</text>
<text text-anchor="start" x="130.603" y="-311" font-family="Helvetica,sans-Serif" font-size="10.00" fill="#000000">onDeleteBooking()</text>
<text text-anchor="start" x="130.6035" y="-299" font-family="Helvetica,sans-Serif" font-size="10.00" fill="#000000">onToggleFeature()</text>
<text text-anchor="start" x="131.1625" y="-287" font-family="Helvetica,sans-Serif" font-size="10.00" fill="#000000">onToggleCapcity()</text>
<text text-anchor="start" x="126.164" y="-275" font-family="Helvetica,sans-Serif" font-size="10.00" fill="#000000">onToggleRecurring()</text>
<text text-anchor="start" x="129.4985" y="-263" font-family="Helvetica,sans-Serif" font-size="10.00" fill="#000000">onSetFloorParam()</text>
<text text-anchor="start" x="117.276" y="-251" font-family="Helvetica,sans-Serif" font-size="10.00" fill="#000000">onSetAvailabilityParam()</text>
<text text-anchor="start" x="105.0425" y="-239" font-family="Helvetica,sans-Serif" font-size="10.00" fill="#000000">oneSetCurrentDateBookings()</text>
<polygon fill="none" stroke="#000000" points="95.5,-182 95.5,-226 248.5,-226 248.5,-182 95.5,-182"/>
<text text-anchor="start" x="129.7735" y="-207" font-family="Helvetica,sans-Serif" font-size="10.00" fill="#000000"> setCalendarDate()</text>
<text text-anchor="start" x="148.669" y="-195" font-family="Helvetica,sans-Serif" font-size="10.00" fill="#000000">setRoom()</text>
<polygon fill="none" stroke="#000000" points="95.5,-150 95.5,-182 248.5,-182 248.5,-150 95.5,-150"/>
<text text-anchor="start" x="131.9965" y="-163" font-family="Helvetica,sans-Serif" font-size="10.00" fill="#000000">loadMyBookings()</text>
</g>
<!-- A3 -->
<g id="node4" class="node">
<title>A3</title>
<polygon fill="none" stroke="#000000" points="105.5,-80 105.5,-100 238.5,-100 238.5,-80 105.5,-80"/>
<polygon fill="none" stroke="#000000" points="105.5,0 105.5,-80 238.5,-80 238.5,0 105.5,0"/>
<text text-anchor="start" x="150.054" y="-61" font-family="Helvetica,sans-Serif" font-size="10.00" fill="#000000">roomData</text>
<text text-anchor="start" x="141.7145" y="-49" font-family="Helvetica,sans-Serif" font-size="10.00" fill="#000000">userBookings</text>
<text text-anchor="start" x="142.2705" y="-37" font-family="Helvetica,sans-Serif" font-size="10.00" fill="#000000">calendarDate</text>
<text text-anchor="start" x="135.321" y="-25" font-family="Helvetica,sans-Serif" font-size="10.00" fill="#000000">selectedBooking</text>
<text text-anchor="start" x="115.056" y="-13" font-family="Helvetica,sans-Serif" font-size="10.00" fill="#000000">filterParams:currentRoom</text>
</g>
<!-- A2&#45;&gt;A3 -->
<g id="edge2" class="edge">
<title>A2&#45;&gt;A3</title>
<path fill="none" stroke="#000000" d="M171.5,-137.8774C171.5,-128.2376 171.5,-118.9789 171.5,-110.3265"/>
<polygon fill="none" stroke="#000000" points="171.5001,-137.9716 175.5,-143.9717 171.5,-149.9716 167.5,-143.9716 171.5001,-137.9716"/>
<polygon fill="#000000" stroke="#000000" points="171.5,-100.0885 176.0001,-110.0884 171.5,-105.0885 171.5001,-110.0885 171.5001,-110.0885 171.5001,-110.0885 171.5,-105.0885 167.0001,-110.0885 171.5,-100.0885 171.5,-100.0885"/>
<text text-anchor="middle" x="179.9524" y="-115.2146" font-family="Helvetica,sans-Serif" font-size="10.00" fill="#000000">state</text>
</g>
</g>
</svg>
